<svg xmlns="http://www.w3.org/2000/svg" width="1700" height="980" viewBox="0 0 1700 980">
<rect width="100%" height="100%" fill="#f8f8f4"/>
<text x="55" y="38" font-size="24" font-family="Arial, Microsoft YaHei" fill="#222">第8关机关死亡触发区：结合关卡数据结构的示意图</text>
<text x="55" y="65" font-size="14" font-family="Arial, Microsoft YaHei" fill="#555">底图来自 level_08.json 的实体结构；蓝色=运动机关本体；绿色=子触发区局部(0,0,0)后的正确覆盖；红色虚线=当前把场景坐标写进子节点后推断出的错误位置。</text>
<rect x="55" y="92" width="980" height="650" fill="white" stroke="#ccc"/>
<text x="67" y="114" font-size="15" font-family="Arial, Microsoft YaHei" fill="#333">A. 第8关数据结构俯视图：正确局部0触发区</text>
<rect x="1085" y="92" width="560" height="650" fill="white" stroke="#ccc"/>
<text x="1097" y="114" font-size="15" font-family="Arial, Microsoft YaHei" fill="#333">B. 同比例俯视：当前错误偏移跑到结构外</text>
<rect x="55" y="790" width="1590" height="140" fill="white" stroke="#ccc"/>
<text x="67" y="812" font-size="15" font-family="Arial, Microsoft YaHei" fill="#333">C. X/Y 高度侧视：绿色应贴住蓝色，红色是叠加偏移后高度也翻倍</text>
<rect x="89.2" y="351.7" width="114.0" height="305.0" fill="#c7c7bd" opacity="0.65" stroke="#888" stroke-width="1"/>
<rect x="203.1" y="464.9" width="638.1" height="139.4" fill="#c7c7bd" opacity="0.65" stroke="#888" stroke-width="1"/>
<rect x="203.1" y="464.9" width="638.1" height="27.9" fill="#666" opacity="0.35" stroke="#555" stroke-width="1"/>
<rect x="203.1" y="576.5" width="638.1" height="27.9" fill="#666" opacity="0.35" stroke="#555" stroke-width="1"/>
<rect x="223.1" y="505.4" width="199.4" height="27.9" fill="#2f80ed" opacity="0.5" stroke="#1559a6" stroke-width="1"/>
<rect x="223.1" y="536.0" width="199.4" height="27.9" fill="#2f80ed" opacity="0.5" stroke="#1559a6" stroke-width="1"/>
<rect x="243.0" y="492.8" width="2.8" height="27.9" fill="#2f80ed" opacity="0.5" stroke="#1559a6" stroke-width="1"/>
<rect x="243.0" y="548.6" width="2.8" height="27.9" fill="#2f80ed" opacity="0.5" stroke="#1559a6" stroke-width="1"/>
<rect x="246.4" y="133.8" width="68.4" height="87.1" fill="#c7c7bd" opacity="0.65" stroke="#888" stroke-width="1"/>
<rect x="271.5" y="492.8" width="2.8" height="27.9" fill="#2f80ed" opacity="0.5" stroke="#1559a6" stroke-width="1"/>
<rect x="271.5" y="548.6" width="2.8" height="27.9" fill="#2f80ed" opacity="0.5" stroke="#1559a6" stroke-width="1"/>
<rect x="300.0" y="492.8" width="2.8" height="27.9" fill="#2f80ed" opacity="0.5" stroke="#1559a6" stroke-width="1"/>
<rect x="300.0" y="548.6" width="2.8" height="27.9" fill="#2f80ed" opacity="0.5" stroke="#1559a6" stroke-width="1"/>
<rect x="328.5" y="492.8" width="2.8" height="27.9" fill="#2f80ed" opacity="0.5" stroke="#1559a6" stroke-width="1"/>
<rect x="328.5" y="548.6" width="2.8" height="27.9" fill="#2f80ed" opacity="0.5" stroke="#1559a6" stroke-width="1"/>
<rect x="357.0" y="492.8" width="2.8" height="27.9" fill="#2f80ed" opacity="0.5" stroke="#1559a6" stroke-width="1"/>
<rect x="357.0" y="548.6" width="2.8" height="27.9" fill="#2f80ed" opacity="0.5" stroke="#1559a6" stroke-width="1"/>
<rect x="385.5" y="492.8" width="2.8" height="27.9" fill="#2f80ed" opacity="0.5" stroke="#1559a6" stroke-width="1"/>
<rect x="385.5" y="548.6" width="2.8" height="27.9" fill="#2f80ed" opacity="0.5" stroke="#1559a6" stroke-width="1"/>
<rect x="414.0" y="492.8" width="2.8" height="27.9" fill="#2f80ed" opacity="0.5" stroke="#1559a6" stroke-width="1"/>
<rect x="414.0" y="548.6" width="2.8" height="27.9" fill="#2f80ed" opacity="0.5" stroke="#1559a6" stroke-width="1"/>
<rect x="468.1" y="505.4" width="156.7" height="27.9" fill="#2f80ed" opacity="0.5" stroke="#1559a6" stroke-width="1"/>
<rect x="468.1" y="536.0" width="156.7" height="27.9" fill="#2f80ed" opacity="0.5" stroke="#1559a6" stroke-width="1"/>
<rect x="473.8" y="492.8" width="2.8" height="27.9" fill="#2f80ed" opacity="0.5" stroke="#1559a6" stroke-width="1"/>
<rect x="473.8" y="548.6" width="2.8" height="27.9" fill="#2f80ed" opacity="0.5" stroke="#1559a6" stroke-width="1"/>
<rect x="502.3" y="492.8" width="2.8" height="27.9" fill="#2f80ed" opacity="0.5" stroke="#1559a6" stroke-width="1"/>
<rect x="502.3" y="548.6" width="2.8" height="27.9" fill="#2f80ed" opacity="0.5" stroke="#1559a6" stroke-width="1"/>
<rect x="519.9" y="133.8" width="68.4" height="87.1" fill="#c7c7bd" opacity="0.65" stroke="#888" stroke-width="1"/>
<rect x="530.8" y="492.8" width="2.8" height="27.9" fill="#2f80ed" opacity="0.5" stroke="#1559a6" stroke-width="1"/>
<rect x="530.8" y="548.6" width="2.8" height="27.9" fill="#2f80ed" opacity="0.5" stroke="#1559a6" stroke-width="1"/>
<rect x="559.2" y="492.8" width="2.8" height="27.9" fill="#2f80ed" opacity="0.5" stroke="#1559a6" stroke-width="1"/>
<rect x="559.2" y="548.6" width="2.8" height="27.9" fill="#2f80ed" opacity="0.5" stroke="#1559a6" stroke-width="1"/>
<rect x="587.7" y="492.8" width="2.8" height="27.9" fill="#2f80ed" opacity="0.5" stroke="#1559a6" stroke-width="1"/>
<rect x="587.7" y="548.6" width="2.8" height="27.9" fill="#2f80ed" opacity="0.5" stroke="#1559a6" stroke-width="1"/>
<rect x="616.2" y="492.8" width="2.8" height="27.9" fill="#2f80ed" opacity="0.5" stroke="#1559a6" stroke-width="1"/>
<rect x="616.2" y="548.6" width="2.8" height="27.9" fill="#2f80ed" opacity="0.5" stroke="#1559a6" stroke-width="1"/>
<rect x="667.5" y="505.4" width="156.7" height="27.9" fill="#2f80ed" opacity="0.5" stroke="#1559a6" stroke-width="1"/>
<rect x="667.5" y="536.0" width="156.7" height="27.9" fill="#2f80ed" opacity="0.5" stroke="#1559a6" stroke-width="1"/>
<rect x="673.2" y="492.8" width="2.8" height="27.9" fill="#2f80ed" opacity="0.5" stroke="#1559a6" stroke-width="1"/>
<rect x="673.2" y="548.6" width="2.8" height="27.9" fill="#2f80ed" opacity="0.5" stroke="#1559a6" stroke-width="1"/>
<rect x="701.7" y="492.8" width="2.8" height="27.9" fill="#2f80ed" opacity="0.5" stroke="#1559a6" stroke-width="1"/>
<rect x="701.7" y="548.6" width="2.8" height="27.9" fill="#2f80ed" opacity="0.5" stroke="#1559a6" stroke-width="1"/>
<rect x="730.2" y="492.8" width="2.8" height="27.9" fill="#2f80ed" opacity="0.5" stroke="#1559a6" stroke-width="1"/>
<rect x="730.2" y="548.6" width="2.8" height="27.9" fill="#2f80ed" opacity="0.5" stroke="#1559a6" stroke-width="1"/>
<rect x="758.7" y="492.8" width="2.8" height="27.9" fill="#2f80ed" opacity="0.5" stroke="#1559a6" stroke-width="1"/>
<rect x="758.7" y="548.6" width="2.8" height="27.9" fill="#2f80ed" opacity="0.5" stroke="#1559a6" stroke-width="1"/>
<rect x="787.2" y="492.8" width="2.8" height="27.9" fill="#2f80ed" opacity="0.5" stroke="#1559a6" stroke-width="1"/>
<rect x="787.2" y="548.6" width="2.8" height="27.9" fill="#2f80ed" opacity="0.5" stroke="#1559a6" stroke-width="1"/>
<rect x="815.6" y="492.8" width="2.8" height="27.9" fill="#2f80ed" opacity="0.5" stroke="#1559a6" stroke-width="1"/>
<rect x="815.6" y="548.6" width="2.8" height="27.9" fill="#2f80ed" opacity="0.5" stroke="#1559a6" stroke-width="1"/>
<rect x="841.3" y="203.5" width="68.4" height="470.5" fill="#c7c7bd" opacity="0.65" stroke="#888" stroke-width="1"/>
<rect x="909.7" y="177.4" width="91.2" height="522.8" fill="#c7c7bd" opacity="0.65" stroke="#888" stroke-width="1"/>
<rect x="221.9" y="504.0" width="201.7" height="30.7" fill="none" stroke="#188038" stroke-width="2"/>
<rect x="221.9" y="534.6" width="201.7" height="30.7" fill="none" stroke="#188038" stroke-width="2"/>
<rect x="241.9" y="491.4" width="5.1" height="30.7" fill="none" stroke="#188038" stroke-width="2"/>
<rect x="241.9" y="547.2" width="5.1" height="30.7" fill="none" stroke="#188038" stroke-width="2"/>
<rect x="270.4" y="491.4" width="5.1" height="30.7" fill="none" stroke="#188038" stroke-width="2"/>
<rect x="270.4" y="547.2" width="5.1" height="30.7" fill="none" stroke="#188038" stroke-width="2"/>
<rect x="298.9" y="491.4" width="5.1" height="30.7" fill="none" stroke="#188038" stroke-width="2"/>
<rect x="298.9" y="547.2" width="5.1" height="30.7" fill="none" stroke="#188038" stroke-width="2"/>
<rect x="327.3" y="491.4" width="5.1" height="30.7" fill="none" stroke="#188038" stroke-width="2"/>
<rect x="327.3" y="547.2" width="5.1" height="30.7" fill="none" stroke="#188038" stroke-width="2"/>
<rect x="355.8" y="491.4" width="5.1" height="30.7" fill="none" stroke="#188038" stroke-width="2"/>
<rect x="355.8" y="547.2" width="5.1" height="30.7" fill="none" stroke="#188038" stroke-width="2"/>
<rect x="384.3" y="491.4" width="5.1" height="30.7" fill="none" stroke="#188038" stroke-width="2"/>
<rect x="384.3" y="547.2" width="5.1" height="30.7" fill="none" stroke="#188038" stroke-width="2"/>
<rect x="412.8" y="491.4" width="5.1" height="30.7" fill="none" stroke="#188038" stroke-width="2"/>
<rect x="412.8" y="547.2" width="5.1" height="30.7" fill="none" stroke="#188038" stroke-width="2"/>
<rect x="466.9" y="504.0" width="159.0" height="30.7" fill="none" stroke="#188038" stroke-width="2"/>
<rect x="466.9" y="534.6" width="159.0" height="30.7" fill="none" stroke="#188038" stroke-width="2"/>
<rect x="472.6" y="491.4" width="5.1" height="30.7" fill="none" stroke="#188038" stroke-width="2"/>
<rect x="472.6" y="547.2" width="5.1" height="30.7" fill="none" stroke="#188038" stroke-width="2"/>
<rect x="501.1" y="491.4" width="5.1" height="30.7" fill="none" stroke="#188038" stroke-width="2"/>
<rect x="501.1" y="547.2" width="5.1" height="30.7" fill="none" stroke="#188038" stroke-width="2"/>
<rect x="529.6" y="491.4" width="5.1" height="30.7" fill="none" stroke="#188038" stroke-width="2"/>
<rect x="529.6" y="547.2" width="5.1" height="30.7" fill="none" stroke="#188038" stroke-width="2"/>
<rect x="558.1" y="491.4" width="5.1" height="30.7" fill="none" stroke="#188038" stroke-width="2"/>
<rect x="558.1" y="547.2" width="5.1" height="30.7" fill="none" stroke="#188038" stroke-width="2"/>
<rect x="586.6" y="491.4" width="5.1" height="30.7" fill="none" stroke="#188038" stroke-width="2"/>
<rect x="586.6" y="547.2" width="5.1" height="30.7" fill="none" stroke="#188038" stroke-width="2"/>
<rect x="615.1" y="491.4" width="5.1" height="30.7" fill="none" stroke="#188038" stroke-width="2"/>
<rect x="615.1" y="547.2" width="5.1" height="30.7" fill="none" stroke="#188038" stroke-width="2"/>
<rect x="666.4" y="504.0" width="159.0" height="30.7" fill="none" stroke="#188038" stroke-width="2"/>
<rect x="666.4" y="534.6" width="159.0" height="30.7" fill="none" stroke="#188038" stroke-width="2"/>
<rect x="672.1" y="491.4" width="5.1" height="30.7" fill="none" stroke="#188038" stroke-width="2"/>
<rect x="672.1" y="547.2" width="5.1" height="30.7" fill="none" stroke="#188038" stroke-width="2"/>
<rect x="700.5" y="491.4" width="5.1" height="30.7" fill="none" stroke="#188038" stroke-width="2"/>
<rect x="700.5" y="547.2" width="5.1" height="30.7" fill="none" stroke="#188038" stroke-width="2"/>
<rect x="729.0" y="491.4" width="5.1" height="30.7" fill="none" stroke="#188038" stroke-width="2"/>
<rect x="729.0" y="547.2" width="5.1" height="30.7" fill="none" stroke="#188038" stroke-width="2"/>
<rect x="757.5" y="491.4" width="5.1" height="30.7" fill="none" stroke="#188038" stroke-width="2"/>
<rect x="757.5" y="547.2" width="5.1" height="30.7" fill="none" stroke="#188038" stroke-width="2"/>
<rect x="786.0" y="491.4" width="5.1" height="30.7" fill="none" stroke="#188038" stroke-width="2"/>
<rect x="786.0" y="547.2" width="5.1" height="30.7" fill="none" stroke="#188038" stroke-width="2"/>
<rect x="814.5" y="491.4" width="5.1" height="30.7" fill="none" stroke="#188038" stroke-width="2"/>
<rect x="814.5" y="547.2" width="5.1" height="30.7" fill="none" stroke="#188038" stroke-width="2"/>
<text x="294.8" y="512.3" font-size="10" font-family="Arial" fill="#222">dxf_80C_35x4</text>
<text x="294.8" y="543.0" font-size="10" font-family="Arial" fill="#222">dxf_814_35x4</text>
<text x="518.4" y="512.3" font-size="10" font-family="Arial" fill="#222">dxf_685_27_5x4</text>
<text x="518.4" y="543.0" font-size="10" font-family="Arial" fill="#222">dxf_6C1_27_5x4</text>
<text x="717.8" y="512.3" font-size="10" font-family="Arial" fill="#222">dxf_681_27_5x4</text>
<text x="717.8" y="543.0" font-size="10" font-family="Arial" fill="#222">dxf_6BD_27_5x4</text>
<rect x="1477.9" y="354.3" width="19.9" height="292.4" fill="#c7c7bd" opacity="0.28" stroke="#888" stroke-width="0.8"/>
<rect x="1497.8" y="463.0" width="111.4" height="133.7" fill="#c7c7bd" opacity="0.28" stroke="#888" stroke-width="0.8"/>
<rect x="1497.8" y="463.0" width="111.4" height="26.7" fill="#c7c7bd" opacity="0.28" stroke="#888" stroke-width="0.8"/>
<rect x="1497.8" y="569.9" width="111.4" height="26.7" fill="#c7c7bd" opacity="0.28" stroke="#888" stroke-width="0.8"/>
<rect x="1501.3" y="501.7" width="34.8" height="26.7" fill="#2f80ed" opacity="0.28" stroke="#888" stroke-width="0.8"/>
<rect x="1501.3" y="531.1" width="34.8" height="26.7" fill="#2f80ed" opacity="0.28" stroke="#888" stroke-width="0.8"/>
<rect x="1504.7" y="489.7" width="0.5" height="26.7" fill="#2f80ed" opacity="0.28" stroke="#888" stroke-width="0.8"/>
<rect x="1504.7" y="543.2" width="0.5" height="26.7" fill="#2f80ed" opacity="0.28" stroke="#888" stroke-width="0.8"/>
<rect x="1505.3" y="145.5" width="11.9" height="83.5" fill="#c7c7bd" opacity="0.28" stroke="#888" stroke-width="0.8"/>
<rect x="1509.7" y="489.7" width="0.5" height="26.7" fill="#2f80ed" opacity="0.28" stroke="#888" stroke-width="0.8"/>
<rect x="1509.7" y="543.2" width="0.5" height="26.7" fill="#2f80ed" opacity="0.28" stroke="#888" stroke-width="0.8"/>
<rect x="1514.7" y="489.7" width="0.5" height="26.7" fill="#2f80ed" opacity="0.28" stroke="#888" stroke-width="0.8"/>
<rect x="1514.7" y="543.2" width="0.5" height="26.7" fill="#2f80ed" opacity="0.28" stroke="#888" stroke-width="0.8"/>
<rect x="1519.7" y="489.7" width="0.5" height="26.7" fill="#2f80ed" opacity="0.28" stroke="#888" stroke-width="0.8"/>
<rect x="1519.7" y="543.2" width="0.5" height="26.7" fill="#2f80ed" opacity="0.28" stroke="#888" stroke-width="0.8"/>
<rect x="1524.6" y="489.7" width="0.5" height="26.7" fill="#2f80ed" opacity="0.28" stroke="#888" stroke-width="0.8"/>
<rect x="1524.6" y="543.2" width="0.5" height="26.7" fill="#2f80ed" opacity="0.28" stroke="#888" stroke-width="0.8"/>
<rect x="1529.6" y="489.7" width="0.5" height="26.7" fill="#2f80ed" opacity="0.28" stroke="#888" stroke-width="0.8"/>
<rect x="1529.6" y="543.2" width="0.5" height="26.7" fill="#2f80ed" opacity="0.28" stroke="#888" stroke-width="0.8"/>
<rect x="1534.6" y="489.7" width="0.5" height="26.7" fill="#2f80ed" opacity="0.28" stroke="#888" stroke-width="0.8"/>
<rect x="1534.6" y="543.2" width="0.5" height="26.7" fill="#2f80ed" opacity="0.28" stroke="#888" stroke-width="0.8"/>
<rect x="1544.0" y="501.7" width="27.4" height="26.7" fill="#2f80ed" opacity="0.28" stroke="#888" stroke-width="0.8"/>
<rect x="1544.0" y="531.1" width="27.4" height="26.7" fill="#2f80ed" opacity="0.28" stroke="#888" stroke-width="0.8"/>
<rect x="1545.0" y="489.7" width="0.5" height="26.7" fill="#2f80ed" opacity="0.28" stroke="#888" stroke-width="0.8"/>
<rect x="1545.0" y="543.2" width="0.5" height="26.7" fill="#2f80ed" opacity="0.28" stroke="#888" stroke-width="0.8"/>
<rect x="1550.0" y="489.7" width="0.5" height="26.7" fill="#2f80ed" opacity="0.28" stroke="#888" stroke-width="0.8"/>
<rect x="1550.0" y="543.2" width="0.5" height="26.7" fill="#2f80ed" opacity="0.28" stroke="#888" stroke-width="0.8"/>
<rect x="1553.1" y="145.5" width="11.9" height="83.5" fill="#c7c7bd" opacity="0.28" stroke="#888" stroke-width="0.8"/>
<rect x="1555.0" y="489.7" width="0.5" height="26.7" fill="#2f80ed" opacity="0.28" stroke="#888" stroke-width="0.8"/>
<rect x="1555.0" y="543.2" width="0.5" height="26.7" fill="#2f80ed" opacity="0.28" stroke="#888" stroke-width="0.8"/>
<rect x="1559.9" y="489.7" width="0.5" height="26.7" fill="#2f80ed" opacity="0.28" stroke="#888" stroke-width="0.8"/>
<rect x="1559.9" y="543.2" width="0.5" height="26.7" fill="#2f80ed" opacity="0.28" stroke="#888" stroke-width="0.8"/>
<rect x="1564.9" y="489.7" width="0.5" height="26.7" fill="#2f80ed" opacity="0.28" stroke="#888" stroke-width="0.8"/>
<rect x="1564.9" y="543.2" width="0.5" height="26.7" fill="#2f80ed" opacity="0.28" stroke="#888" stroke-width="0.8"/>
<rect x="1569.9" y="489.7" width="0.5" height="26.7" fill="#2f80ed" opacity="0.28" stroke="#888" stroke-width="0.8"/>
<rect x="1569.9" y="543.2" width="0.5" height="26.7" fill="#2f80ed" opacity="0.28" stroke="#888" stroke-width="0.8"/>
<rect x="1578.8" y="501.7" width="27.4" height="26.7" fill="#2f80ed" opacity="0.28" stroke="#888" stroke-width="0.8"/>
<rect x="1578.8" y="531.1" width="27.4" height="26.7" fill="#2f80ed" opacity="0.28" stroke="#888" stroke-width="0.8"/>
<rect x="1579.8" y="489.7" width="0.5" height="26.7" fill="#2f80ed" opacity="0.28" stroke="#888" stroke-width="0.8"/>
<rect x="1579.8" y="543.2" width="0.5" height="26.7" fill="#2f80ed" opacity="0.28" stroke="#888" stroke-width="0.8"/>
<rect x="1584.8" y="489.7" width="0.5" height="26.7" fill="#2f80ed" opacity="0.28" stroke="#888" stroke-width="0.8"/>
<rect x="1584.8" y="543.2" width="0.5" height="26.7" fill="#2f80ed" opacity="0.28" stroke="#888" stroke-width="0.8"/>
<rect x="1589.8" y="489.7" width="0.5" height="26.7" fill="#2f80ed" opacity="0.28" stroke="#888" stroke-width="0.8"/>
<rect x="1589.8" y="543.2" width="0.5" height="26.7" fill="#2f80ed" opacity="0.28" stroke="#888" stroke-width="0.8"/>
<rect x="1594.8" y="489.7" width="0.5" height="26.7" fill="#2f80ed" opacity="0.28" stroke="#888" stroke-width="0.8"/>
<rect x="1594.8" y="543.2" width="0.5" height="26.7" fill="#2f80ed" opacity="0.28" stroke="#888" stroke-width="0.8"/>
<rect x="1599.7" y="489.7" width="0.5" height="26.7" fill="#2f80ed" opacity="0.28" stroke="#888" stroke-width="0.8"/>
<rect x="1599.7" y="543.2" width="0.5" height="26.7" fill="#2f80ed" opacity="0.28" stroke="#888" stroke-width="0.8"/>
<rect x="1604.7" y="489.7" width="0.5" height="26.7" fill="#2f80ed" opacity="0.28" stroke="#888" stroke-width="0.8"/>
<rect x="1604.7" y="543.2" width="0.5" height="26.7" fill="#2f80ed" opacity="0.28" stroke="#888" stroke-width="0.8"/>
<rect x="1609.2" y="212.3" width="11.9" height="451.2" fill="#c7c7bd" opacity="0.28" stroke="#888" stroke-width="0.8"/>
<rect x="1621.1" y="187.2" width="15.9" height="501.3" fill="#c7c7bd" opacity="0.28" stroke="#888" stroke-width="0.8"/>
<line x1="1518.7" y1="515.1" x2="1120.8" y2="351.7" stroke="#999" stroke-width="1" opacity="0.45"/>
<rect x="1103.2" y="337.0" width="35.2" height="29.4" fill="none" stroke="#d93025" stroke-width="1.8" stroke-dasharray="5 4"/>
<line x1="1518.7" y1="544.5" x2="1120.8" y2="410.5" stroke="#999" stroke-width="1" opacity="0.45"/>
<rect x="1103.2" y="395.8" width="35.2" height="29.4" fill="none" stroke="#d93025" stroke-width="1.8" stroke-dasharray="5 4"/>
<line x1="1505.0" y1="503.1" x2="1093.4" y2="327.6" stroke="#999" stroke-width="1" opacity="0.45"/>
<rect x="1093.0" y="312.9" width="0.9" height="29.4" fill="none" stroke="#d93025" stroke-width="1.8" stroke-dasharray="5 4"/>
<line x1="1505.0" y1="556.5" x2="1093.4" y2="434.5" stroke="#999" stroke-width="1" opacity="0.45"/>
<rect x="1093.0" y="419.8" width="0.9" height="29.4" fill="none" stroke="#d93025" stroke-width="1.8" stroke-dasharray="5 4"/>
<line x1="1510.0" y1="503.1" x2="1103.4" y2="327.6" stroke="#999" stroke-width="1" opacity="0.45"/>
<rect x="1102.9" y="312.9" width="0.9" height="29.4" fill="none" stroke="#d93025" stroke-width="1.8" stroke-dasharray="5 4"/>
<line x1="1510.0" y1="556.5" x2="1103.4" y2="434.5" stroke="#999" stroke-width="1" opacity="0.45"/>
<rect x="1102.9" y="419.8" width="0.9" height="29.4" fill="none" stroke="#d93025" stroke-width="1.8" stroke-dasharray="5 4"/>
<line x1="1514.9" y1="503.1" x2="1113.3" y2="327.6" stroke="#999" stroke-width="1" opacity="0.45"/>
<rect x="1112.9" y="312.9" width="0.9" height="29.4" fill="none" stroke="#d93025" stroke-width="1.8" stroke-dasharray="5 4"/>
<line x1="1514.9" y1="556.5" x2="1113.3" y2="434.5" stroke="#999" stroke-width="1" opacity="0.45"/>
<rect x="1112.9" y="419.8" width="0.9" height="29.4" fill="none" stroke="#d93025" stroke-width="1.8" stroke-dasharray="5 4"/>
<line x1="1519.9" y1="503.1" x2="1123.2" y2="327.6" stroke="#999" stroke-width="1" opacity="0.45"/>
<rect x="1122.8" y="312.9" width="0.9" height="29.4" fill="none" stroke="#d93025" stroke-width="1.8" stroke-dasharray="5 4"/>
<line x1="1519.9" y1="556.5" x2="1123.2" y2="434.5" stroke="#999" stroke-width="1" opacity="0.45"/>
<rect x="1122.8" y="419.8" width="0.9" height="29.4" fill="none" stroke="#d93025" stroke-width="1.8" stroke-dasharray="5 4"/>
<line x1="1524.9" y1="503.1" x2="1133.2" y2="327.6" stroke="#999" stroke-width="1" opacity="0.45"/>
<rect x="1132.7" y="312.9" width="0.9" height="29.4" fill="none" stroke="#d93025" stroke-width="1.8" stroke-dasharray="5 4"/>
<line x1="1524.9" y1="556.5" x2="1133.2" y2="434.5" stroke="#999" stroke-width="1" opacity="0.45"/>
<rect x="1132.7" y="419.8" width="0.9" height="29.4" fill="none" stroke="#d93025" stroke-width="1.8" stroke-dasharray="5 4"/>
<line x1="1529.9" y1="503.1" x2="1143.1" y2="327.6" stroke="#999" stroke-width="1" opacity="0.45"/>
<rect x="1142.7" y="312.9" width="0.9" height="29.4" fill="none" stroke="#d93025" stroke-width="1.8" stroke-dasharray="5 4"/>
<line x1="1529.9" y1="556.5" x2="1143.1" y2="434.5" stroke="#999" stroke-width="1" opacity="0.45"/>
<rect x="1142.7" y="419.8" width="0.9" height="29.4" fill="none" stroke="#d93025" stroke-width="1.8" stroke-dasharray="5 4"/>
<line x1="1534.8" y1="503.1" x2="1153.1" y2="327.6" stroke="#999" stroke-width="1" opacity="0.45"/>
<rect x="1152.6" y="312.9" width="0.9" height="29.4" fill="none" stroke="#d93025" stroke-width="1.8" stroke-dasharray="5 4"/>
<line x1="1534.8" y1="556.5" x2="1153.1" y2="434.5" stroke="#999" stroke-width="1" opacity="0.45"/>
<rect x="1152.6" y="419.8" width="0.9" height="29.4" fill="none" stroke="#d93025" stroke-width="1.8" stroke-dasharray="5 4"/>
<line x1="1557.7" y1="515.1" x2="1198.9" y2="351.7" stroke="#999" stroke-width="1" opacity="0.45"/>
<rect x="1185.0" y="337.0" width="27.8" height="29.4" fill="none" stroke="#d93025" stroke-width="1.8" stroke-dasharray="5 4"/>
<line x1="1557.7" y1="544.5" x2="1198.9" y2="410.5" stroke="#999" stroke-width="1" opacity="0.45"/>
<rect x="1185.0" y="395.8" width="27.8" height="29.4" fill="none" stroke="#d93025" stroke-width="1.8" stroke-dasharray="5 4"/>
<line x1="1545.3" y1="503.1" x2="1174.0" y2="327.6" stroke="#999" stroke-width="1" opacity="0.45"/>
<rect x="1173.5" y="312.9" width="0.9" height="29.4" fill="none" stroke="#d93025" stroke-width="1.8" stroke-dasharray="5 4"/>
<line x1="1545.3" y1="556.5" x2="1174.0" y2="434.5" stroke="#999" stroke-width="1" opacity="0.45"/>
<rect x="1173.5" y="419.8" width="0.9" height="29.4" fill="none" stroke="#d93025" stroke-width="1.8" stroke-dasharray="5 4"/>
<line x1="1550.2" y1="503.1" x2="1183.9" y2="327.6" stroke="#999" stroke-width="1" opacity="0.45"/>
<rect x="1183.5" y="312.9" width="0.9" height="29.4" fill="none" stroke="#d93025" stroke-width="1.8" stroke-dasharray="5 4"/>
<line x1="1550.2" y1="556.5" x2="1183.9" y2="434.5" stroke="#999" stroke-width="1" opacity="0.45"/>
<rect x="1183.5" y="419.8" width="0.9" height="29.4" fill="none" stroke="#d93025" stroke-width="1.8" stroke-dasharray="5 4"/>
<line x1="1555.2" y1="503.1" x2="1193.9" y2="327.6" stroke="#999" stroke-width="1" opacity="0.45"/>
<rect x="1193.4" y="312.9" width="0.9" height="29.4" fill="none" stroke="#d93025" stroke-width="1.8" stroke-dasharray="5 4"/>
<line x1="1555.2" y1="556.5" x2="1193.9" y2="434.5" stroke="#999" stroke-width="1" opacity="0.45"/>
<rect x="1193.4" y="419.8" width="0.9" height="29.4" fill="none" stroke="#d93025" stroke-width="1.8" stroke-dasharray="5 4"/>
<line x1="1560.2" y1="503.1" x2="1203.8" y2="327.6" stroke="#999" stroke-width="1" opacity="0.45"/>
<rect x="1203.4" y="312.9" width="0.9" height="29.4" fill="none" stroke="#d93025" stroke-width="1.8" stroke-dasharray="5 4"/>
<line x1="1560.2" y1="556.5" x2="1203.8" y2="434.5" stroke="#999" stroke-width="1" opacity="0.45"/>
<rect x="1203.4" y="419.8" width="0.9" height="29.4" fill="none" stroke="#d93025" stroke-width="1.8" stroke-dasharray="5 4"/>
<line x1="1565.2" y1="503.1" x2="1213.8" y2="327.6" stroke="#999" stroke-width="1" opacity="0.45"/>
<rect x="1213.3" y="312.9" width="0.9" height="29.4" fill="none" stroke="#d93025" stroke-width="1.8" stroke-dasharray="5 4"/>
<line x1="1565.2" y1="556.5" x2="1213.8" y2="434.5" stroke="#999" stroke-width="1" opacity="0.45"/>
<rect x="1213.3" y="419.8" width="0.9" height="29.4" fill="none" stroke="#d93025" stroke-width="1.8" stroke-dasharray="5 4"/>
<line x1="1570.1" y1="503.1" x2="1223.7" y2="327.6" stroke="#999" stroke-width="1" opacity="0.45"/>
<rect x="1223.3" y="312.9" width="0.9" height="29.4" fill="none" stroke="#d93025" stroke-width="1.8" stroke-dasharray="5 4"/>
<line x1="1570.1" y1="556.5" x2="1223.7" y2="434.5" stroke="#999" stroke-width="1" opacity="0.45"/>
<rect x="1223.3" y="419.8" width="0.9" height="29.4" fill="none" stroke="#d93025" stroke-width="1.8" stroke-dasharray="5 4"/>
<line x1="1592.5" y1="515.1" x2="1268.5" y2="351.7" stroke="#999" stroke-width="1" opacity="0.45"/>
<rect x="1254.6" y="337.0" width="27.8" height="29.4" fill="none" stroke="#d93025" stroke-width="1.8" stroke-dasharray="5 4"/>
<line x1="1592.5" y1="544.5" x2="1268.5" y2="410.5" stroke="#999" stroke-width="1" opacity="0.45"/>
<rect x="1254.6" y="395.8" width="27.8" height="29.4" fill="none" stroke="#d93025" stroke-width="1.8" stroke-dasharray="5 4"/>
<line x1="1580.1" y1="503.1" x2="1243.6" y2="327.6" stroke="#999" stroke-width="1" opacity="0.45"/>
<rect x="1243.2" y="312.9" width="0.9" height="29.4" fill="none" stroke="#d93025" stroke-width="1.8" stroke-dasharray="5 4"/>
<line x1="1580.1" y1="556.5" x2="1243.6" y2="434.5" stroke="#999" stroke-width="1" opacity="0.45"/>
<rect x="1243.2" y="419.8" width="0.9" height="29.4" fill="none" stroke="#d93025" stroke-width="1.8" stroke-dasharray="5 4"/>
<line x1="1585.1" y1="503.1" x2="1253.6" y2="327.6" stroke="#999" stroke-width="1" opacity="0.45"/>
<rect x="1253.1" y="312.9" width="0.9" height="29.4" fill="none" stroke="#d93025" stroke-width="1.8" stroke-dasharray="5 4"/>
<line x1="1585.1" y1="556.5" x2="1253.6" y2="434.5" stroke="#999" stroke-width="1" opacity="0.45"/>
<rect x="1253.1" y="419.8" width="0.9" height="29.4" fill="none" stroke="#d93025" stroke-width="1.8" stroke-dasharray="5 4"/>
<line x1="1590.0" y1="503.1" x2="1263.5" y2="327.6" stroke="#999" stroke-width="1" opacity="0.45"/>
<rect x="1263.1" y="312.9" width="0.9" height="29.4" fill="none" stroke="#d93025" stroke-width="1.8" stroke-dasharray="5 4"/>
<line x1="1590.0" y1="556.5" x2="1263.5" y2="434.5" stroke="#999" stroke-width="1" opacity="0.45"/>
<rect x="1263.1" y="419.8" width="0.9" height="29.4" fill="none" stroke="#d93025" stroke-width="1.8" stroke-dasharray="5 4"/>
<line x1="1595.0" y1="503.1" x2="1273.5" y2="327.6" stroke="#999" stroke-width="1" opacity="0.45"/>
<rect x="1273.0" y="312.9" width="0.9" height="29.4" fill="none" stroke="#d93025" stroke-width="1.8" stroke-dasharray="5 4"/>
<line x1="1595.0" y1="556.5" x2="1273.5" y2="434.5" stroke="#999" stroke-width="1" opacity="0.45"/>
<rect x="1273.0" y="419.8" width="0.9" height="29.4" fill="none" stroke="#d93025" stroke-width="1.8" stroke-dasharray="5 4"/>
<line x1="1600.0" y1="503.1" x2="1283.4" y2="327.6" stroke="#999" stroke-width="1" opacity="0.45"/>
<rect x="1283.0" y="312.9" width="0.9" height="29.4" fill="none" stroke="#d93025" stroke-width="1.8" stroke-dasharray="5 4"/>
<line x1="1600.0" y1="556.5" x2="1283.4" y2="434.5" stroke="#999" stroke-width="1" opacity="0.45"/>
<rect x="1283.0" y="419.8" width="0.9" height="29.4" fill="none" stroke="#d93025" stroke-width="1.8" stroke-dasharray="5 4"/>
<line x1="1605.0" y1="503.1" x2="1293.4" y2="327.6" stroke="#999" stroke-width="1" opacity="0.45"/>
<rect x="1292.9" y="312.9" width="0.9" height="29.4" fill="none" stroke="#d93025" stroke-width="1.8" stroke-dasharray="5 4"/>
<line x1="1605.0" y1="556.5" x2="1293.4" y2="434.5" stroke="#999" stroke-width="1" opacity="0.45"/>
<rect x="1292.9" y="419.8" width="0.9" height="29.4" fill="none" stroke="#d93025" stroke-width="1.8" stroke-dasharray="5 4"/>
<rect x="98.2" y="815.9" width="107.4" height="40.0" fill="none" stroke="#d93025" stroke-width="1.4" stroke-dasharray="5 4" opacity="0.55"/>
<rect x="98.2" y="815.9" width="107.4" height="40.0" fill="none" stroke="#d93025" stroke-width="1.4" stroke-dasharray="5 4" opacity="0.55"/>
<rect x="67.1" y="804.8" width="2.7" height="10.4" fill="none" stroke="#d93025" stroke-width="1.4" stroke-dasharray="5 4" opacity="0.55"/>
<rect x="67.1" y="804.8" width="2.7" height="10.4" fill="none" stroke="#d93025" stroke-width="1.4" stroke-dasharray="5 4" opacity="0.55"/>
<rect x="97.5" y="804.8" width="2.7" height="10.4" fill="none" stroke="#d93025" stroke-width="1.4" stroke-dasharray="5 4" opacity="0.55"/>
<rect x="97.5" y="804.8" width="2.7" height="10.4" fill="none" stroke="#d93025" stroke-width="1.4" stroke-dasharray="5 4" opacity="0.55"/>
<rect x="127.8" y="804.8" width="2.7" height="10.4" fill="none" stroke="#d93025" stroke-width="1.4" stroke-dasharray="5 4" opacity="0.55"/>
<rect x="127.8" y="804.8" width="2.7" height="10.4" fill="none" stroke="#d93025" stroke-width="1.4" stroke-dasharray="5 4" opacity="0.55"/>
<rect x="158.1" y="804.8" width="2.7" height="10.4" fill="none" stroke="#d93025" stroke-width="1.4" stroke-dasharray="5 4" opacity="0.55"/>
<rect x="158.1" y="804.8" width="2.7" height="10.4" fill="none" stroke="#d93025" stroke-width="1.4" stroke-dasharray="5 4" opacity="0.55"/>
<rect x="188.5" y="804.8" width="2.7" height="10.4" fill="none" stroke="#d93025" stroke-width="1.4" stroke-dasharray="5 4" opacity="0.55"/>
<rect x="188.5" y="804.8" width="2.7" height="10.4" fill="none" stroke="#d93025" stroke-width="1.4" stroke-dasharray="5 4" opacity="0.55"/>
<rect x="218.8" y="804.8" width="2.7" height="10.4" fill="none" stroke="#d93025" stroke-width="1.4" stroke-dasharray="5 4" opacity="0.55"/>
<rect x="218.8" y="804.8" width="2.7" height="10.4" fill="none" stroke="#d93025" stroke-width="1.4" stroke-dasharray="5 4" opacity="0.55"/>
<rect x="249.1" y="804.8" width="2.7" height="10.4" fill="none" stroke="#d93025" stroke-width="1.4" stroke-dasharray="5 4" opacity="0.55"/>
<rect x="249.1" y="804.8" width="2.7" height="10.4" fill="none" stroke="#d93025" stroke-width="1.4" stroke-dasharray="5 4" opacity="0.55"/>
<rect x="347.7" y="815.9" width="84.6" height="40.0" fill="none" stroke="#d93025" stroke-width="1.4" stroke-dasharray="5 4" opacity="0.55"/>
<rect x="347.7" y="815.9" width="84.6" height="40.0" fill="none" stroke="#d93025" stroke-width="1.4" stroke-dasharray="5 4" opacity="0.55"/>
<rect x="312.8" y="804.8" width="2.7" height="10.4" fill="none" stroke="#d93025" stroke-width="1.4" stroke-dasharray="5 4" opacity="0.55"/>
<rect x="312.8" y="804.8" width="2.7" height="10.4" fill="none" stroke="#d93025" stroke-width="1.4" stroke-dasharray="5 4" opacity="0.55"/>
<rect x="343.2" y="804.8" width="2.7" height="10.4" fill="none" stroke="#d93025" stroke-width="1.4" stroke-dasharray="5 4" opacity="0.55"/>
<rect x="343.2" y="804.8" width="2.7" height="10.4" fill="none" stroke="#d93025" stroke-width="1.4" stroke-dasharray="5 4" opacity="0.55"/>
<rect x="373.5" y="804.8" width="2.7" height="10.4" fill="none" stroke="#d93025" stroke-width="1.4" stroke-dasharray="5 4" opacity="0.55"/>
<rect x="373.5" y="804.8" width="2.7" height="10.4" fill="none" stroke="#d93025" stroke-width="1.4" stroke-dasharray="5 4" opacity="0.55"/>
<rect x="403.9" y="804.8" width="2.7" height="10.4" fill="none" stroke="#d93025" stroke-width="1.4" stroke-dasharray="5 4" opacity="0.55"/>
<rect x="403.9" y="804.8" width="2.7" height="10.4" fill="none" stroke="#d93025" stroke-width="1.4" stroke-dasharray="5 4" opacity="0.55"/>
<rect x="434.2" y="804.8" width="2.7" height="10.4" fill="none" stroke="#d93025" stroke-width="1.4" stroke-dasharray="5 4" opacity="0.55"/>
<rect x="434.2" y="804.8" width="2.7" height="10.4" fill="none" stroke="#d93025" stroke-width="1.4" stroke-dasharray="5 4" opacity="0.55"/>
<rect x="464.5" y="804.8" width="2.7" height="10.4" fill="none" stroke="#d93025" stroke-width="1.4" stroke-dasharray="5 4" opacity="0.55"/>
<rect x="464.5" y="804.8" width="2.7" height="10.4" fill="none" stroke="#d93025" stroke-width="1.4" stroke-dasharray="5 4" opacity="0.55"/>
<rect x="560.1" y="815.9" width="84.6" height="40.0" fill="none" stroke="#d93025" stroke-width="1.4" stroke-dasharray="5 4" opacity="0.55"/>
<rect x="560.1" y="815.9" width="84.6" height="40.0" fill="none" stroke="#d93025" stroke-width="1.4" stroke-dasharray="5 4" opacity="0.55"/>
<rect x="525.2" y="804.8" width="2.7" height="10.4" fill="none" stroke="#d93025" stroke-width="1.4" stroke-dasharray="5 4" opacity="0.55"/>
<rect x="525.2" y="804.8" width="2.7" height="10.4" fill="none" stroke="#d93025" stroke-width="1.4" stroke-dasharray="5 4" opacity="0.55"/>
<rect x="555.5" y="804.8" width="2.7" height="10.4" fill="none" stroke="#d93025" stroke-width="1.4" stroke-dasharray="5 4" opacity="0.55"/>
<rect x="555.5" y="804.8" width="2.7" height="10.4" fill="none" stroke="#d93025" stroke-width="1.4" stroke-dasharray="5 4" opacity="0.55"/>
<rect x="585.9" y="804.8" width="2.7" height="10.4" fill="none" stroke="#d93025" stroke-width="1.4" stroke-dasharray="5 4" opacity="0.55"/>
<rect x="585.9" y="804.8" width="2.7" height="10.4" fill="none" stroke="#d93025" stroke-width="1.4" stroke-dasharray="5 4" opacity="0.55"/>
<rect x="616.2" y="804.8" width="2.7" height="10.4" fill="none" stroke="#d93025" stroke-width="1.4" stroke-dasharray="5 4" opacity="0.55"/>
<rect x="616.2" y="804.8" width="2.7" height="10.4" fill="none" stroke="#d93025" stroke-width="1.4" stroke-dasharray="5 4" opacity="0.55"/>
<rect x="646.5" y="804.8" width="2.7" height="10.4" fill="none" stroke="#d93025" stroke-width="1.4" stroke-dasharray="5 4" opacity="0.55"/>
<rect x="646.5" y="804.8" width="2.7" height="10.4" fill="none" stroke="#d93025" stroke-width="1.4" stroke-dasharray="5 4" opacity="0.55"/>
<rect x="676.9" y="804.8" width="2.7" height="10.4" fill="none" stroke="#d93025" stroke-width="1.4" stroke-dasharray="5 4" opacity="0.55"/>
<rect x="676.9" y="804.8" width="2.7" height="10.4" fill="none" stroke="#d93025" stroke-width="1.4" stroke-dasharray="5 4" opacity="0.55"/>
<rect x="1312.2" y="876.7" width="106.2" height="37.0" fill="#2f80ed" opacity="0.35" stroke="#1559a6" stroke-width="0.9"/>
<rect x="1311.6" y="875.2" width="107.4" height="40.0" fill="none" stroke="#188038" stroke-width="1.6"/>
<rect x="1312.2" y="876.7" width="106.2" height="37.0" fill="#2f80ed" opacity="0.35" stroke="#1559a6" stroke-width="0.9"/>
<rect x="1311.6" y="875.2" width="107.4" height="40.0" fill="none" stroke="#188038" stroke-width="1.6"/>
<rect x="1322.8" y="878.5" width="1.5" height="7.4" fill="#2f80ed" opacity="0.35" stroke="#1559a6" stroke-width="0.9"/>
<rect x="1322.2" y="877.0" width="2.7" height="10.4" fill="none" stroke="#188038" stroke-width="1.6"/>
<rect x="1322.8" y="878.5" width="1.5" height="7.4" fill="#2f80ed" opacity="0.35" stroke="#1559a6" stroke-width="0.9"/>
<rect x="1322.2" y="877.0" width="2.7" height="10.4" fill="none" stroke="#188038" stroke-width="1.6"/>
<rect x="1338.0" y="878.5" width="1.5" height="7.4" fill="#2f80ed" opacity="0.35" stroke="#1559a6" stroke-width="0.9"/>
<rect x="1337.4" y="877.0" width="2.7" height="10.4" fill="none" stroke="#188038" stroke-width="1.6"/>
<rect x="1338.0" y="878.5" width="1.5" height="7.4" fill="#2f80ed" opacity="0.35" stroke="#1559a6" stroke-width="0.9"/>
<rect x="1337.4" y="877.0" width="2.7" height="10.4" fill="none" stroke="#188038" stroke-width="1.6"/>
<rect x="1353.2" y="878.5" width="1.5" height="7.4" fill="#2f80ed" opacity="0.35" stroke="#1559a6" stroke-width="0.9"/>
<rect x="1352.6" y="877.0" width="2.7" height="10.4" fill="none" stroke="#188038" stroke-width="1.6"/>
<rect x="1353.2" y="878.5" width="1.5" height="7.4" fill="#2f80ed" opacity="0.35" stroke="#1559a6" stroke-width="0.9"/>
<rect x="1352.6" y="877.0" width="2.7" height="10.4" fill="none" stroke="#188038" stroke-width="1.6"/>
<rect x="1368.3" y="878.5" width="1.5" height="7.4" fill="#2f80ed" opacity="0.35" stroke="#1559a6" stroke-width="0.9"/>
<rect x="1367.7" y="877.0" width="2.7" height="10.4" fill="none" stroke="#188038" stroke-width="1.6"/>
<rect x="1368.3" y="878.5" width="1.5" height="7.4" fill="#2f80ed" opacity="0.35" stroke="#1559a6" stroke-width="0.9"/>
<rect x="1367.7" y="877.0" width="2.7" height="10.4" fill="none" stroke="#188038" stroke-width="1.6"/>
<rect x="1383.5" y="878.5" width="1.5" height="7.4" fill="#2f80ed" opacity="0.35" stroke="#1559a6" stroke-width="0.9"/>
<rect x="1382.9" y="877.0" width="2.7" height="10.4" fill="none" stroke="#188038" stroke-width="1.6"/>
<rect x="1383.5" y="878.5" width="1.5" height="7.4" fill="#2f80ed" opacity="0.35" stroke="#1559a6" stroke-width="0.9"/>
<rect x="1382.9" y="877.0" width="2.7" height="10.4" fill="none" stroke="#188038" stroke-width="1.6"/>
<rect x="1398.7" y="878.5" width="1.5" height="7.4" fill="#2f80ed" opacity="0.35" stroke="#1559a6" stroke-width="0.9"/>
<rect x="1398.1" y="877.0" width="2.7" height="10.4" fill="none" stroke="#188038" stroke-width="1.6"/>
<rect x="1398.7" y="878.5" width="1.5" height="7.4" fill="#2f80ed" opacity="0.35" stroke="#1559a6" stroke-width="0.9"/>
<rect x="1398.1" y="877.0" width="2.7" height="10.4" fill="none" stroke="#188038" stroke-width="1.6"/>
<rect x="1413.8" y="878.5" width="1.5" height="7.4" fill="#2f80ed" opacity="0.35" stroke="#1559a6" stroke-width="0.9"/>
<rect x="1413.2" y="877.0" width="2.7" height="10.4" fill="none" stroke="#188038" stroke-width="1.6"/>
<rect x="1413.8" y="878.5" width="1.5" height="7.4" fill="#2f80ed" opacity="0.35" stroke="#1559a6" stroke-width="0.9"/>
<rect x="1413.2" y="877.0" width="2.7" height="10.4" fill="none" stroke="#188038" stroke-width="1.6"/>
<rect x="1442.7" y="876.7" width="83.4" height="37.0" fill="#2f80ed" opacity="0.35" stroke="#1559a6" stroke-width="0.9"/>
<rect x="1442.1" y="875.2" width="84.6" height="40.0" fill="none" stroke="#188038" stroke-width="1.6"/>
<rect x="1442.7" y="876.7" width="83.4" height="37.0" fill="#2f80ed" opacity="0.35" stroke="#1559a6" stroke-width="0.9"/>
<rect x="1442.1" y="875.2" width="84.6" height="40.0" fill="none" stroke="#188038" stroke-width="1.6"/>
<rect x="1445.7" y="878.5" width="1.5" height="7.4" fill="#2f80ed" opacity="0.35" stroke="#1559a6" stroke-width="0.9"/>
<rect x="1445.1" y="877.0" width="2.7" height="10.4" fill="none" stroke="#188038" stroke-width="1.6"/>
<rect x="1445.7" y="878.5" width="1.5" height="7.4" fill="#2f80ed" opacity="0.35" stroke="#1559a6" stroke-width="0.9"/>
<rect x="1445.1" y="877.0" width="2.7" height="10.4" fill="none" stroke="#188038" stroke-width="1.6"/>
<rect x="1460.9" y="878.5" width="1.5" height="7.4" fill="#2f80ed" opacity="0.35" stroke="#1559a6" stroke-width="0.9"/>
<rect x="1460.3" y="877.0" width="2.7" height="10.4" fill="none" stroke="#188038" stroke-width="1.6"/>
<rect x="1460.9" y="878.5" width="1.5" height="7.4" fill="#2f80ed" opacity="0.35" stroke="#1559a6" stroke-width="0.9"/>
<rect x="1460.3" y="877.0" width="2.7" height="10.4" fill="none" stroke="#188038" stroke-width="1.6"/>
<rect x="1476.0" y="878.5" width="1.5" height="7.4" fill="#2f80ed" opacity="0.35" stroke="#1559a6" stroke-width="0.9"/>
<rect x="1475.4" y="877.0" width="2.7" height="10.4" fill="none" stroke="#188038" stroke-width="1.6"/>
<rect x="1476.0" y="878.5" width="1.5" height="7.4" fill="#2f80ed" opacity="0.35" stroke="#1559a6" stroke-width="0.9"/>
<rect x="1475.4" y="877.0" width="2.7" height="10.4" fill="none" stroke="#188038" stroke-width="1.6"/>
<rect x="1491.2" y="878.5" width="1.5" height="7.4" fill="#2f80ed" opacity="0.35" stroke="#1559a6" stroke-width="0.9"/>
<rect x="1490.6" y="877.0" width="2.7" height="10.4" fill="none" stroke="#188038" stroke-width="1.6"/>
<rect x="1491.2" y="878.5" width="1.5" height="7.4" fill="#2f80ed" opacity="0.35" stroke="#1559a6" stroke-width="0.9"/>
<rect x="1490.6" y="877.0" width="2.7" height="10.4" fill="none" stroke="#188038" stroke-width="1.6"/>
<rect x="1506.4" y="878.5" width="1.5" height="7.4" fill="#2f80ed" opacity="0.35" stroke="#1559a6" stroke-width="0.9"/>
<rect x="1505.8" y="877.0" width="2.7" height="10.4" fill="none" stroke="#188038" stroke-width="1.6"/>
<rect x="1506.4" y="878.5" width="1.5" height="7.4" fill="#2f80ed" opacity="0.35" stroke="#1559a6" stroke-width="0.9"/>
<rect x="1505.8" y="877.0" width="2.7" height="10.4" fill="none" stroke="#188038" stroke-width="1.6"/>
<rect x="1521.5" y="878.5" width="1.5" height="7.4" fill="#2f80ed" opacity="0.35" stroke="#1559a6" stroke-width="0.9"/>
<rect x="1520.9" y="877.0" width="2.7" height="10.4" fill="none" stroke="#188038" stroke-width="1.6"/>
<rect x="1521.5" y="878.5" width="1.5" height="7.4" fill="#2f80ed" opacity="0.35" stroke="#1559a6" stroke-width="0.9"/>
<rect x="1520.9" y="877.0" width="2.7" height="10.4" fill="none" stroke="#188038" stroke-width="1.6"/>
<rect x="1548.8" y="876.7" width="83.4" height="37.0" fill="#2f80ed" opacity="0.35" stroke="#1559a6" stroke-width="0.9"/>
<rect x="1548.2" y="875.2" width="84.6" height="40.0" fill="none" stroke="#188038" stroke-width="1.6"/>
<rect x="1548.8" y="876.7" width="83.4" height="37.0" fill="#2f80ed" opacity="0.35" stroke="#1559a6" stroke-width="0.9"/>
<rect x="1548.2" y="875.2" width="84.6" height="40.0" fill="none" stroke="#188038" stroke-width="1.6"/>
<rect x="1551.9" y="878.5" width="1.5" height="7.4" fill="#2f80ed" opacity="0.35" stroke="#1559a6" stroke-width="0.9"/>
<rect x="1551.3" y="877.0" width="2.7" height="10.4" fill="none" stroke="#188038" stroke-width="1.6"/>
<rect x="1551.9" y="878.5" width="1.5" height="7.4" fill="#2f80ed" opacity="0.35" stroke="#1559a6" stroke-width="0.9"/>
<rect x="1551.3" y="877.0" width="2.7" height="10.4" fill="none" stroke="#188038" stroke-width="1.6"/>
<rect x="1567.0" y="878.5" width="1.5" height="7.4" fill="#2f80ed" opacity="0.35" stroke="#1559a6" stroke-width="0.9"/>
<rect x="1566.4" y="877.0" width="2.7" height="10.4" fill="none" stroke="#188038" stroke-width="1.6"/>
<rect x="1567.0" y="878.5" width="1.5" height="7.4" fill="#2f80ed" opacity="0.35" stroke="#1559a6" stroke-width="0.9"/>
<rect x="1566.4" y="877.0" width="2.7" height="10.4" fill="none" stroke="#188038" stroke-width="1.6"/>
<rect x="1582.2" y="878.5" width="1.5" height="7.4" fill="#2f80ed" opacity="0.35" stroke="#1559a6" stroke-width="0.9"/>
<rect x="1581.6" y="877.0" width="2.7" height="10.4" fill="none" stroke="#188038" stroke-width="1.6"/>
<rect x="1582.2" y="878.5" width="1.5" height="7.4" fill="#2f80ed" opacity="0.35" stroke="#1559a6" stroke-width="0.9"/>
<rect x="1581.6" y="877.0" width="2.7" height="10.4" fill="none" stroke="#188038" stroke-width="1.6"/>
<rect x="1597.4" y="878.5" width="1.5" height="7.4" fill="#2f80ed" opacity="0.35" stroke="#1559a6" stroke-width="0.9"/>
<rect x="1596.8" y="877.0" width="2.7" height="10.4" fill="none" stroke="#188038" stroke-width="1.6"/>
<rect x="1597.4" y="878.5" width="1.5" height="7.4" fill="#2f80ed" opacity="0.35" stroke="#1559a6" stroke-width="0.9"/>
<rect x="1596.8" y="877.0" width="2.7" height="10.4" fill="none" stroke="#188038" stroke-width="1.6"/>
<rect x="1612.5" y="878.5" width="1.5" height="7.4" fill="#2f80ed" opacity="0.35" stroke="#1559a6" stroke-width="0.9"/>
<rect x="1611.9" y="877.0" width="2.7" height="10.4" fill="none" stroke="#188038" stroke-width="1.6"/>
<rect x="1612.5" y="878.5" width="1.5" height="7.4" fill="#2f80ed" opacity="0.35" stroke="#1559a6" stroke-width="0.9"/>
<rect x="1611.9" y="877.0" width="2.7" height="10.4" fill="none" stroke="#188038" stroke-width="1.6"/>
<rect x="1627.7" y="878.5" width="1.5" height="7.4" fill="#2f80ed" opacity="0.35" stroke="#1559a6" stroke-width="0.9"/>
<rect x="1627.1" y="877.0" width="2.7" height="10.4" fill="none" stroke="#188038" stroke-width="1.6"/>
<rect x="1627.7" y="878.5" width="1.5" height="7.4" fill="#2f80ed" opacity="0.35" stroke="#1559a6" stroke-width="0.9"/>
<rect x="1627.1" y="877.0" width="2.7" height="10.4" fill="none" stroke="#188038" stroke-width="1.6"/>
<rect x="1240" y="22" width="405" height="54" fill="white" stroke="#ccc"/>
<rect x="1256" y="38" width="26" height="10" fill="#2f80ed" opacity="0.5" stroke="#1559a6"/>
<text x="1290" y="48" font-size="12" font-family="Arial, Microsoft YaHei" fill="#333">运动机关本体</text>
<rect x="1380" y="38" width="26" height="10" fill="none" stroke="#188038" stroke-width="2"/>
<text x="1414" y="48" font-size="12" font-family="Arial, Microsoft YaHei" fill="#333">局部0正确触发区</text>
<rect x="1256" y="58" width="26" height="10" fill="none" stroke="#d93025" stroke-width="2" stroke-dasharray="5 4"/>
<text x="1290" y="68" font-size="12" font-family="Arial, Microsoft YaHei" fill="#333">当前错误偏移</text>
<text x="55" y="960" font-size="13" font-family="Arial, Microsoft YaHei" fill="#555">示例：dxf_80C 本体 position=(-400,8,-24.45)，当前子触发区也被写成 (-400,8,-24.45)，若按子节点局部坐标叠加，会推到 (-800,16,-48.9)。局部0才会回到本体中心。</text>
</svg>