<svg xmlns="http://www.w3.org/2000/svg" width="1400" height="800" viewBox="0 0 1400 800">
<rect width="100%" height="100%" fill="#f7f7f2"/>
<text x="60" y="32" font-size="22" font-family="Arial" fill="#222">第8关机关/死亡触发区位置快照示意</text>
<text x="60" y="56" font-size="14" font-family="Arial" fill="#555">蓝色=机关本体 position；红色=触发区按当前父子坐标推断的位置；灰线=偏移</text>
<line x1="60.0" y1="60" x2="60.0" y2="740" stroke="#ddd" stroke-width="1"/>
<line x1="60" y1="60.0" x2="1340" y2="60.0" stroke="#ddd" stroke-width="1"/>
<line x1="188.0" y1="60" x2="188.0" y2="740" stroke="#ddd" stroke-width="1"/>
<line x1="60" y1="128.0" x2="1340" y2="128.0" stroke="#ddd" stroke-width="1"/>
<line x1="316.0" y1="60" x2="316.0" y2="740" stroke="#ddd" stroke-width="1"/>
<line x1="60" y1="196.0" x2="1340" y2="196.0" stroke="#ddd" stroke-width="1"/>
<line x1="444.0" y1="60" x2="444.0" y2="740" stroke="#ddd" stroke-width="1"/>
<line x1="60" y1="264.0" x2="1340" y2="264.0" stroke="#ddd" stroke-width="1"/>
<line x1="572.0" y1="60" x2="572.0" y2="740" stroke="#ddd" stroke-width="1"/>
<line x1="60" y1="332.0" x2="1340" y2="332.0" stroke="#ddd" stroke-width="1"/>
<line x1="700.0" y1="60" x2="700.0" y2="740" stroke="#ddd" stroke-width="1"/>
<line x1="60" y1="400.0" x2="1340" y2="400.0" stroke="#ddd" stroke-width="1"/>
<line x1="828.0" y1="60" x2="828.0" y2="740" stroke="#ddd" stroke-width="1"/>
<line x1="60" y1="468.0" x2="1340" y2="468.0" stroke="#ddd" stroke-width="1"/>
<line x1="956.0" y1="60" x2="956.0" y2="740" stroke="#ddd" stroke-width="1"/>
<line x1="60" y1="536.0" x2="1340" y2="536.0" stroke="#ddd" stroke-width="1"/>
<line x1="1084.0" y1="60" x2="1084.0" y2="740" stroke="#ddd" stroke-width="1"/>
<line x1="60" y1="604.0" x2="1340" y2="604.0" stroke="#ddd" stroke-width="1"/>
<line x1="1212.0" y1="60" x2="1212.0" y2="740" stroke="#ddd" stroke-width="1"/>
<line x1="60" y1="672.0" x2="1340" y2="672.0" stroke="#ddd" stroke-width="1"/>
<line x1="1340.0" y1="60" x2="1340.0" y2="740" stroke="#ddd" stroke-width="1"/>
<line x1="60" y1="740.0" x2="1340" y2="740.0" stroke="#ddd" stroke-width="1"/>
<line x1="1108.2" y1="536.9" x2="149.8" y2="230.5" stroke="#999" stroke-width="1.2" opacity="0.65"/>
<line x1="1108.2" y1="592.1" x2="149.8" y2="340.8" stroke="#999" stroke-width="1.2" opacity="0.65"/>
<line x1="1075.3" y1="514.4" x2="84.0" y2="185.3" stroke="#999" stroke-width="1.2" opacity="0.65"/>
<line x1="1075.3" y1="614.7" x2="84.0" y2="385.9" stroke="#999" stroke-width="1.2" opacity="0.65"/>
<line x1="1087.2" y1="514.4" x2="107.9" y2="185.3" stroke="#999" stroke-width="1.2" opacity="0.65"/>
<line x1="1087.2" y1="614.7" x2="107.9" y2="385.9" stroke="#999" stroke-width="1.2" opacity="0.65"/>
<line x1="1099.2" y1="514.4" x2="131.9" y2="185.3" stroke="#999" stroke-width="1.2" opacity="0.65"/>
<line x1="1099.2" y1="614.7" x2="131.9" y2="385.9" stroke="#999" stroke-width="1.2" opacity="0.65"/>
<line x1="1111.2" y1="514.4" x2="155.8" y2="185.3" stroke="#999" stroke-width="1.2" opacity="0.65"/>
<line x1="1111.2" y1="614.7" x2="155.8" y2="385.9" stroke="#999" stroke-width="1.2" opacity="0.65"/>
<line x1="1123.2" y1="514.4" x2="179.8" y2="185.3" stroke="#999" stroke-width="1.2" opacity="0.65"/>
<line x1="1123.2" y1="614.7" x2="179.8" y2="385.9" stroke="#999" stroke-width="1.2" opacity="0.65"/>
<line x1="1135.2" y1="514.4" x2="203.8" y2="185.3" stroke="#999" stroke-width="1.2" opacity="0.65"/>
<line x1="1135.2" y1="614.7" x2="203.8" y2="385.9" stroke="#999" stroke-width="1.2" opacity="0.65"/>
<line x1="1147.1" y1="514.4" x2="227.7" y2="185.3" stroke="#999" stroke-width="1.2" opacity="0.65"/>
<line x1="1147.1" y1="614.7" x2="227.7" y2="385.9" stroke="#999" stroke-width="1.2" opacity="0.65"/>
<line x1="1202.2" y1="536.9" x2="337.9" y2="230.5" stroke="#999" stroke-width="1.2" opacity="0.65"/>
<line x1="1202.2" y1="592.1" x2="337.9" y2="340.8" stroke="#999" stroke-width="1.2" opacity="0.65"/>
<line x1="1172.3" y1="514.4" x2="278.0" y2="185.3" stroke="#999" stroke-width="1.2" opacity="0.65"/>
<line x1="1172.3" y1="614.7" x2="278.0" y2="385.9" stroke="#999" stroke-width="1.2" opacity="0.65"/>
<line x1="1184.3" y1="514.4" x2="302.0" y2="185.3" stroke="#999" stroke-width="1.2" opacity="0.65"/>
<line x1="1184.3" y1="614.7" x2="302.0" y2="385.9" stroke="#999" stroke-width="1.2" opacity="0.65"/>
<line x1="1196.2" y1="514.4" x2="325.9" y2="185.3" stroke="#999" stroke-width="1.2" opacity="0.65"/>
<line x1="1196.2" y1="614.7" x2="325.9" y2="385.9" stroke="#999" stroke-width="1.2" opacity="0.65"/>
<line x1="1208.2" y1="514.4" x2="349.9" y2="185.3" stroke="#999" stroke-width="1.2" opacity="0.65"/>
<line x1="1208.2" y1="614.7" x2="349.9" y2="385.9" stroke="#999" stroke-width="1.2" opacity="0.65"/>
<line x1="1220.2" y1="514.4" x2="373.9" y2="185.3" stroke="#999" stroke-width="1.2" opacity="0.65"/>
<line x1="1220.2" y1="614.7" x2="373.9" y2="385.9" stroke="#999" stroke-width="1.2" opacity="0.65"/>
<line x1="1232.2" y1="514.4" x2="397.8" y2="185.3" stroke="#999" stroke-width="1.2" opacity="0.65"/>
<line x1="1232.2" y1="614.7" x2="397.8" y2="385.9" stroke="#999" stroke-width="1.2" opacity="0.65"/>
<line x1="1286.1" y1="536.9" x2="505.6" y2="230.5" stroke="#999" stroke-width="1.2" opacity="0.65"/>
<line x1="1286.1" y1="592.1" x2="505.6" y2="340.8" stroke="#999" stroke-width="1.2" opacity="0.65"/>
<line x1="1256.1" y1="514.4" x2="445.7" y2="185.3" stroke="#999" stroke-width="1.2" opacity="0.65"/>
<line x1="1256.1" y1="614.7" x2="445.7" y2="385.9" stroke="#999" stroke-width="1.2" opacity="0.65"/>
<line x1="1268.1" y1="514.4" x2="469.7" y2="185.3" stroke="#999" stroke-width="1.2" opacity="0.65"/>
<line x1="1268.1" y1="614.7" x2="469.7" y2="385.9" stroke="#999" stroke-width="1.2" opacity="0.65"/>
<line x1="1280.1" y1="514.4" x2="493.7" y2="185.3" stroke="#999" stroke-width="1.2" opacity="0.65"/>
<line x1="1280.1" y1="614.7" x2="493.7" y2="385.9" stroke="#999" stroke-width="1.2" opacity="0.65"/>
<line x1="1292.1" y1="514.4" x2="517.6" y2="185.3" stroke="#999" stroke-width="1.2" opacity="0.65"/>
<line x1="1292.1" y1="614.7" x2="517.6" y2="385.9" stroke="#999" stroke-width="1.2" opacity="0.65"/>
<line x1="1304.1" y1="514.4" x2="541.6" y2="185.3" stroke="#999" stroke-width="1.2" opacity="0.65"/>
<line x1="1304.1" y1="614.7" x2="541.6" y2="385.9" stroke="#999" stroke-width="1.2" opacity="0.65"/>
<line x1="1316.0" y1="514.4" x2="565.5" y2="185.3" stroke="#999" stroke-width="1.2" opacity="0.65"/>
<line x1="1316.0" y1="614.7" x2="565.5" y2="385.9" stroke="#999" stroke-width="1.2" opacity="0.65"/>
<rect x="1066.3" y="511.9" width="83.9" height="50.1" fill="#2f80ed" opacity="0.55" stroke="#1559a6" stroke-width="1"/>
<rect x="1066.3" y="567.0" width="83.9" height="50.1" fill="#2f80ed" opacity="0.55" stroke="#1559a6" stroke-width="1"/>
<rect x="1073.3" y="489.3" width="4.0" height="50.1" fill="#2f80ed" opacity="0.55" stroke="#1559a6" stroke-width="1"/>
<rect x="1073.3" y="589.6" width="4.0" height="50.1" fill="#2f80ed" opacity="0.55" stroke="#1559a6" stroke-width="1"/>
<rect x="1085.2" y="489.3" width="4.0" height="50.1" fill="#2f80ed" opacity="0.55" stroke="#1559a6" stroke-width="1"/>
<rect x="1085.2" y="589.6" width="4.0" height="50.1" fill="#2f80ed" opacity="0.55" stroke="#1559a6" stroke-width="1"/>
<rect x="1097.2" y="489.3" width="4.0" height="50.1" fill="#2f80ed" opacity="0.55" stroke="#1559a6" stroke-width="1"/>
<rect x="1097.2" y="589.6" width="4.0" height="50.1" fill="#2f80ed" opacity="0.55" stroke="#1559a6" stroke-width="1"/>
<rect x="1109.2" y="489.3" width="4.0" height="50.1" fill="#2f80ed" opacity="0.55" stroke="#1559a6" stroke-width="1"/>
<rect x="1109.2" y="589.6" width="4.0" height="50.1" fill="#2f80ed" opacity="0.55" stroke="#1559a6" stroke-width="1"/>
<rect x="1121.2" y="489.3" width="4.0" height="50.1" fill="#2f80ed" opacity="0.55" stroke="#1559a6" stroke-width="1"/>
<rect x="1121.2" y="589.6" width="4.0" height="50.1" fill="#2f80ed" opacity="0.55" stroke="#1559a6" stroke-width="1"/>
<rect x="1133.2" y="489.3" width="4.0" height="50.1" fill="#2f80ed" opacity="0.55" stroke="#1559a6" stroke-width="1"/>
<rect x="1133.2" y="589.6" width="4.0" height="50.1" fill="#2f80ed" opacity="0.55" stroke="#1559a6" stroke-width="1"/>
<rect x="1145.1" y="489.3" width="4.0" height="50.1" fill="#2f80ed" opacity="0.55" stroke="#1559a6" stroke-width="1"/>
<rect x="1145.1" y="589.6" width="4.0" height="50.1" fill="#2f80ed" opacity="0.55" stroke="#1559a6" stroke-width="1"/>
<rect x="1169.3" y="511.9" width="65.9" height="50.1" fill="#2f80ed" opacity="0.55" stroke="#1559a6" stroke-width="1"/>
<rect x="1169.3" y="567.0" width="65.9" height="50.1" fill="#2f80ed" opacity="0.55" stroke="#1559a6" stroke-width="1"/>
<rect x="1170.3" y="489.3" width="4.0" height="50.1" fill="#2f80ed" opacity="0.55" stroke="#1559a6" stroke-width="1"/>
<rect x="1170.3" y="589.6" width="4.0" height="50.1" fill="#2f80ed" opacity="0.55" stroke="#1559a6" stroke-width="1"/>
<rect x="1182.3" y="489.3" width="4.0" height="50.1" fill="#2f80ed" opacity="0.55" stroke="#1559a6" stroke-width="1"/>
<rect x="1182.3" y="589.6" width="4.0" height="50.1" fill="#2f80ed" opacity="0.55" stroke="#1559a6" stroke-width="1"/>
<rect x="1194.2" y="489.3" width="4.0" height="50.1" fill="#2f80ed" opacity="0.55" stroke="#1559a6" stroke-width="1"/>
<rect x="1194.2" y="589.6" width="4.0" height="50.1" fill="#2f80ed" opacity="0.55" stroke="#1559a6" stroke-width="1"/>
<rect x="1206.2" y="489.3" width="4.0" height="50.1" fill="#2f80ed" opacity="0.55" stroke="#1559a6" stroke-width="1"/>
<rect x="1206.2" y="589.6" width="4.0" height="50.1" fill="#2f80ed" opacity="0.55" stroke="#1559a6" stroke-width="1"/>
<rect x="1218.2" y="489.3" width="4.0" height="50.1" fill="#2f80ed" opacity="0.55" stroke="#1559a6" stroke-width="1"/>
<rect x="1218.2" y="589.6" width="4.0" height="50.1" fill="#2f80ed" opacity="0.55" stroke="#1559a6" stroke-width="1"/>
<rect x="1230.2" y="489.3" width="4.0" height="50.1" fill="#2f80ed" opacity="0.55" stroke="#1559a6" stroke-width="1"/>
<rect x="1230.2" y="589.6" width="4.0" height="50.1" fill="#2f80ed" opacity="0.55" stroke="#1559a6" stroke-width="1"/>
<rect x="1253.1" y="511.9" width="65.9" height="50.1" fill="#2f80ed" opacity="0.55" stroke="#1559a6" stroke-width="1"/>
<rect x="1253.1" y="567.0" width="65.9" height="50.1" fill="#2f80ed" opacity="0.55" stroke="#1559a6" stroke-width="1"/>
<rect x="1254.1" y="489.3" width="4.0" height="50.1" fill="#2f80ed" opacity="0.55" stroke="#1559a6" stroke-width="1"/>
<rect x="1254.1" y="589.6" width="4.0" height="50.1" fill="#2f80ed" opacity="0.55" stroke="#1559a6" stroke-width="1"/>
<rect x="1266.1" y="489.3" width="4.0" height="50.1" fill="#2f80ed" opacity="0.55" stroke="#1559a6" stroke-width="1"/>
<rect x="1266.1" y="589.6" width="4.0" height="50.1" fill="#2f80ed" opacity="0.55" stroke="#1559a6" stroke-width="1"/>
<rect x="1278.1" y="489.3" width="4.0" height="50.1" fill="#2f80ed" opacity="0.55" stroke="#1559a6" stroke-width="1"/>
<rect x="1278.1" y="589.6" width="4.0" height="50.1" fill="#2f80ed" opacity="0.55" stroke="#1559a6" stroke-width="1"/>
<rect x="1290.1" y="489.3" width="4.0" height="50.1" fill="#2f80ed" opacity="0.55" stroke="#1559a6" stroke-width="1"/>
<rect x="1290.1" y="589.6" width="4.0" height="50.1" fill="#2f80ed" opacity="0.55" stroke="#1559a6" stroke-width="1"/>
<rect x="1302.1" y="489.3" width="4.0" height="50.1" fill="#2f80ed" opacity="0.55" stroke="#1559a6" stroke-width="1"/>
<rect x="1302.1" y="589.6" width="4.0" height="50.1" fill="#2f80ed" opacity="0.55" stroke="#1559a6" stroke-width="1"/>
<rect x="1314.0" y="489.3" width="4.0" height="50.1" fill="#2f80ed" opacity="0.55" stroke="#1559a6" stroke-width="1"/>
<rect x="1314.0" y="589.6" width="4.0" height="50.1" fill="#2f80ed" opacity="0.55" stroke="#1559a6" stroke-width="1"/>
<rect x="107.4" y="202.9" width="84.8" height="55.2" fill="none" stroke="#d93025" stroke-width="2" opacity="0.9"/>
<rect x="107.4" y="313.2" width="84.8" height="55.2" fill="none" stroke="#d93025" stroke-width="2" opacity="0.9"/>
<rect x="82.0" y="157.8" width="4.0" height="55.2" fill="none" stroke="#d93025" stroke-width="2" opacity="0.9"/>
<rect x="82.0" y="358.3" width="4.0" height="55.2" fill="none" stroke="#d93025" stroke-width="2" opacity="0.9"/>
<rect x="105.9" y="157.8" width="4.0" height="55.2" fill="none" stroke="#d93025" stroke-width="2" opacity="0.9"/>
<rect x="105.9" y="358.3" width="4.0" height="55.2" fill="none" stroke="#d93025" stroke-width="2" opacity="0.9"/>
<rect x="129.9" y="157.8" width="4.0" height="55.2" fill="none" stroke="#d93025" stroke-width="2" opacity="0.9"/>
<rect x="129.9" y="358.3" width="4.0" height="55.2" fill="none" stroke="#d93025" stroke-width="2" opacity="0.9"/>
<rect x="153.8" y="157.8" width="4.0" height="55.2" fill="none" stroke="#d93025" stroke-width="2" opacity="0.9"/>
<rect x="153.8" y="358.3" width="4.0" height="55.2" fill="none" stroke="#d93025" stroke-width="2" opacity="0.9"/>
<rect x="177.8" y="157.8" width="4.0" height="55.2" fill="none" stroke="#d93025" stroke-width="2" opacity="0.9"/>
<rect x="177.8" y="358.3" width="4.0" height="55.2" fill="none" stroke="#d93025" stroke-width="2" opacity="0.9"/>
<rect x="201.8" y="157.8" width="4.0" height="55.2" fill="none" stroke="#d93025" stroke-width="2" opacity="0.9"/>
<rect x="201.8" y="358.3" width="4.0" height="55.2" fill="none" stroke="#d93025" stroke-width="2" opacity="0.9"/>
<rect x="225.7" y="157.8" width="4.0" height="55.2" fill="none" stroke="#d93025" stroke-width="2" opacity="0.9"/>
<rect x="225.7" y="358.3" width="4.0" height="55.2" fill="none" stroke="#d93025" stroke-width="2" opacity="0.9"/>
<rect x="304.5" y="202.9" width="66.8" height="55.2" fill="none" stroke="#d93025" stroke-width="2" opacity="0.9"/>
<rect x="304.5" y="313.2" width="66.8" height="55.2" fill="none" stroke="#d93025" stroke-width="2" opacity="0.9"/>
<rect x="276.0" y="157.8" width="4.0" height="55.2" fill="none" stroke="#d93025" stroke-width="2" opacity="0.9"/>
<rect x="276.0" y="358.3" width="4.0" height="55.2" fill="none" stroke="#d93025" stroke-width="2" opacity="0.9"/>
<rect x="300.0" y="157.8" width="4.0" height="55.2" fill="none" stroke="#d93025" stroke-width="2" opacity="0.9"/>
<rect x="300.0" y="358.3" width="4.0" height="55.2" fill="none" stroke="#d93025" stroke-width="2" opacity="0.9"/>
<rect x="323.9" y="157.8" width="4.0" height="55.2" fill="none" stroke="#d93025" stroke-width="2" opacity="0.9"/>
<rect x="323.9" y="358.3" width="4.0" height="55.2" fill="none" stroke="#d93025" stroke-width="2" opacity="0.9"/>
<rect x="347.9" y="157.8" width="4.0" height="55.2" fill="none" stroke="#d93025" stroke-width="2" opacity="0.9"/>
<rect x="347.9" y="358.3" width="4.0" height="55.2" fill="none" stroke="#d93025" stroke-width="2" opacity="0.9"/>
<rect x="371.9" y="157.8" width="4.0" height="55.2" fill="none" stroke="#d93025" stroke-width="2" opacity="0.9"/>
<rect x="371.9" y="358.3" width="4.0" height="55.2" fill="none" stroke="#d93025" stroke-width="2" opacity="0.9"/>
<rect x="395.8" y="157.8" width="4.0" height="55.2" fill="none" stroke="#d93025" stroke-width="2" opacity="0.9"/>
<rect x="395.8" y="358.3" width="4.0" height="55.2" fill="none" stroke="#d93025" stroke-width="2" opacity="0.9"/>
<rect x="472.2" y="202.9" width="66.8" height="55.2" fill="none" stroke="#d93025" stroke-width="2" opacity="0.9"/>
<rect x="472.2" y="313.2" width="66.8" height="55.2" fill="none" stroke="#d93025" stroke-width="2" opacity="0.9"/>
<rect x="443.7" y="157.8" width="4.0" height="55.2" fill="none" stroke="#d93025" stroke-width="2" opacity="0.9"/>
<rect x="443.7" y="358.3" width="4.0" height="55.2" fill="none" stroke="#d93025" stroke-width="2" opacity="0.9"/>
<rect x="467.7" y="157.8" width="4.0" height="55.2" fill="none" stroke="#d93025" stroke-width="2" opacity="0.9"/>
<rect x="467.7" y="358.3" width="4.0" height="55.2" fill="none" stroke="#d93025" stroke-width="2" opacity="0.9"/>
<rect x="491.7" y="157.8" width="4.0" height="55.2" fill="none" stroke="#d93025" stroke-width="2" opacity="0.9"/>
<rect x="491.7" y="358.3" width="4.0" height="55.2" fill="none" stroke="#d93025" stroke-width="2" opacity="0.9"/>
<rect x="515.6" y="157.8" width="4.0" height="55.2" fill="none" stroke="#d93025" stroke-width="2" opacity="0.9"/>
<rect x="515.6" y="358.3" width="4.0" height="55.2" fill="none" stroke="#d93025" stroke-width="2" opacity="0.9"/>
<rect x="539.6" y="157.8" width="4.0" height="55.2" fill="none" stroke="#d93025" stroke-width="2" opacity="0.9"/>
<rect x="539.6" y="358.3" width="4.0" height="55.2" fill="none" stroke="#d93025" stroke-width="2" opacity="0.9"/>
<rect x="563.5" y="157.8" width="4.0" height="55.2" fill="none" stroke="#d93025" stroke-width="2" opacity="0.9"/>
<rect x="563.5" y="358.3" width="4.0" height="55.2" fill="none" stroke="#d93025" stroke-width="2" opacity="0.9"/>
<text x="1113.2" y="531.9" font-size="10" font-family="Arial" fill="#222">dxf_80C_35x4</text>
<text x="1113.2" y="587.1" font-size="10" font-family="Arial" fill="#222">dxf_814_35x4</text>
<text x="1080.3" y="509.4" font-size="10" font-family="Arial" fill="#222">dxf_840_0_5x4</text>
<text x="1080.3" y="609.7" font-size="10" font-family="Arial" fill="#222">dxf_844_0_5x4</text>
<text x="1092.2" y="509.4" font-size="10" font-family="Arial" fill="#222">dxf_828_0_5x4</text>
<text x="1092.2" y="609.7" font-size="10" font-family="Arial" fill="#222">dxf_83C_0_5x4</text>
<text x="1104.2" y="509.4" font-size="10" font-family="Arial" fill="#222">dxf_824_0_5x4</text>
<text x="1104.2" y="609.7" font-size="10" font-family="Arial" fill="#222">dxf_838_0_5x4</text>
<rect x="1040" y="28" width="300" height="62" fill="white" stroke="#ccc"/>
<rect x="1060" y="44" width="34" height="12" fill="#2f80ed" opacity="0.55" stroke="#1559a6"/>
<text x="1104" y="55" font-size="13" font-family="Arial" fill="#333">机关本体中心/范围</text>
<rect x="1060" y="66" width="34" height="12" fill="none" stroke="#d93025" stroke-width="2"/>
<text x="1104" y="77" font-size="13" font-family="Arial" fill="#333">当前触发区推断位置</text>
</svg>