<svg xmlns="http://www.w3.org/2000/svg" width="1720" height="1080" viewBox="0 0 1720 1080">
<rect width="100%" height="100%" fill="#f8f8f4"/>
<text x="54" y="38" font-size="25" font-family="Arial, Microsoft YaHei" fill="#222">第8关机关高度理解图：死亡触发区红色轮廓</text>
<text x="54" y="66" font-size="14" font-family="Arial, Microsoft YaHei" fill="#555">这里不是俯视图。纵轴都是 Y 高度：长板中心 Y=8，高度5；细杆中心 Y=9.75，高度1；红色死亡区按本体高度外扩0.2。</text>
<rect x="54" y="100" width="790" height="760" fill="white" stroke="#c7c7c7"/>
<text x="68" y="125" font-size="16" font-family="Arial, Microsoft YaHei" fill="#333">A. X/Y 正视图：看每块机关在高度上的覆盖</text>
<rect x="900" y="100" width="760" height="760" fill="white" stroke="#c7c7c7"/>
<text x="914" y="125" font-size="16" font-family="Arial, Microsoft YaHei" fill="#333">B. Z/Y 侧视图：看上下两排夹口与高度层级</text>
<line x1="88" y1="815.0" x2="808" y2="815.0" stroke="#e1e1dc"/>
<text x="50" y="819.0" font-size="11" font-family="Arial" fill="#666">Y=0</text>
<line x1="940" y1="815.0" x2="1620" y2="815.0" stroke="#e1e1dc"/>
<text x="902" y="819.0" font-size="11" font-family="Arial" fill="#666">Y=0</text>
<line x1="88" y1="665.6" x2="808" y2="665.6" stroke="#e1e1dc"/>
<text x="50" y="669.6" font-size="11" font-family="Arial" fill="#666">Y=3</text>
<line x1="940" y1="665.6" x2="1620" y2="665.6" stroke="#e1e1dc"/>
<text x="902" y="669.6" font-size="11" font-family="Arial" fill="#666">Y=3</text>
<line x1="88" y1="541.0" x2="808" y2="541.0" stroke="#e1e1dc"/>
<text x="50" y="545.0" font-size="11" font-family="Arial" fill="#666">Y=5.5</text>
<line x1="940" y1="541.0" x2="1620" y2="541.0" stroke="#e1e1dc"/>
<text x="902" y="545.0" font-size="11" font-family="Arial" fill="#666">Y=5.5</text>
<line x1="88" y1="416.5" x2="808" y2="416.5" stroke="#e1e1dc"/>
<text x="50" y="420.5" font-size="11" font-family="Arial" fill="#666">Y=8</text>
<line x1="940" y1="416.5" x2="1620" y2="416.5" stroke="#e1e1dc"/>
<text x="902" y="420.5" font-size="11" font-family="Arial" fill="#666">Y=8</text>
<line x1="88" y1="329.3" x2="808" y2="329.3" stroke="#e1e1dc"/>
<text x="50" y="333.3" font-size="11" font-family="Arial" fill="#666">Y=9.75</text>
<line x1="940" y1="329.3" x2="1620" y2="329.3" stroke="#e1e1dc"/>
<text x="902" y="333.3" font-size="11" font-family="Arial" fill="#666">Y=9.75</text>
<line x1="88" y1="292.0" x2="808" y2="292.0" stroke="#e1e1dc"/>
<text x="50" y="296.0" font-size="11" font-family="Arial" fill="#666">Y=10.5</text>
<line x1="940" y1="292.0" x2="1620" y2="292.0" stroke="#e1e1dc"/>
<text x="902" y="296.0" font-size="11" font-family="Arial" fill="#666">Y=10.5</text>
<line x1="88" y1="254.6" x2="808" y2="254.6" stroke="#e1e1dc"/>
<text x="50" y="258.6" font-size="11" font-family="Arial" fill="#666">Y=11.25</text>
<line x1="940" y1="254.6" x2="1620" y2="254.6" stroke="#e1e1dc"/>
<text x="902" y="258.6" font-size="11" font-family="Arial" fill="#666">Y=11.25</text>
<line x1="88" y1="167.5" x2="808" y2="167.5" stroke="#e1e1dc"/>
<text x="50" y="171.5" font-size="11" font-family="Arial" fill="#666">Y=13</text>
<line x1="940" y1="167.5" x2="1620" y2="167.5" stroke="#e1e1dc"/>
<text x="902" y="171.5" font-size="11" font-family="Arial" fill="#666">Y=13</text>
<rect x="88.0" y="665.6" width="720.0" height="149.4" fill="#c9c9bf" opacity="0.25" stroke="none"/>
<rect x="940.0" y="665.6" width="680.0" height="149.4" fill="#c9c9bf" opacity="0.25" stroke="none"/>
<rect x="193.9" y="254.6" width="474.4" height="473.2" fill="#555" opacity="0.25" stroke="#444" stroke-width="0.9"/>
<rect x="193.9" y="254.6" width="474.4" height="473.2" fill="#555" opacity="0.25" stroke="#444" stroke-width="0.9"/>
<rect x="208.7" y="292.0" width="148.2" height="249.1" fill="#2f80ed" opacity="0.38" stroke="#1559a6" stroke-width="0.9"/>
<rect x="208.7" y="292.0" width="148.2" height="249.1" fill="#2f80ed" opacity="0.38" stroke="#1559a6" stroke-width="0.9"/>
<rect x="223.5" y="304.4" width="2.1" height="49.8" fill="#2f80ed" opacity="0.38" stroke="#1559a6" stroke-width="0.9"/>
<rect x="223.5" y="304.4" width="2.1" height="49.8" fill="#2f80ed" opacity="0.38" stroke="#1559a6" stroke-width="0.9"/>
<rect x="244.7" y="304.4" width="2.1" height="49.8" fill="#2f80ed" opacity="0.38" stroke="#1559a6" stroke-width="0.9"/>
<rect x="244.7" y="304.4" width="2.1" height="49.8" fill="#2f80ed" opacity="0.38" stroke="#1559a6" stroke-width="0.9"/>
<rect x="265.9" y="304.4" width="2.1" height="49.8" fill="#2f80ed" opacity="0.38" stroke="#1559a6" stroke-width="0.9"/>
<rect x="265.9" y="304.4" width="2.1" height="49.8" fill="#2f80ed" opacity="0.38" stroke="#1559a6" stroke-width="0.9"/>
<rect x="287.1" y="304.4" width="2.1" height="49.8" fill="#2f80ed" opacity="0.38" stroke="#1559a6" stroke-width="0.9"/>
<rect x="287.1" y="304.4" width="2.1" height="49.8" fill="#2f80ed" opacity="0.38" stroke="#1559a6" stroke-width="0.9"/>
<rect x="308.2" y="304.4" width="2.1" height="49.8" fill="#2f80ed" opacity="0.38" stroke="#1559a6" stroke-width="0.9"/>
<rect x="308.2" y="304.4" width="2.1" height="49.8" fill="#2f80ed" opacity="0.38" stroke="#1559a6" stroke-width="0.9"/>
<rect x="329.4" y="304.4" width="2.1" height="49.8" fill="#2f80ed" opacity="0.38" stroke="#1559a6" stroke-width="0.9"/>
<rect x="329.4" y="304.4" width="2.1" height="49.8" fill="#2f80ed" opacity="0.38" stroke="#1559a6" stroke-width="0.9"/>
<rect x="350.6" y="304.4" width="2.1" height="49.8" fill="#2f80ed" opacity="0.38" stroke="#1559a6" stroke-width="0.9"/>
<rect x="350.6" y="304.4" width="2.1" height="49.8" fill="#2f80ed" opacity="0.38" stroke="#1559a6" stroke-width="0.9"/>
<rect x="390.8" y="292.0" width="116.5" height="249.1" fill="#2f80ed" opacity="0.38" stroke="#1559a6" stroke-width="0.9"/>
<rect x="390.8" y="292.0" width="116.5" height="249.1" fill="#2f80ed" opacity="0.38" stroke="#1559a6" stroke-width="0.9"/>
<rect x="395.1" y="304.4" width="2.1" height="49.8" fill="#2f80ed" opacity="0.38" stroke="#1559a6" stroke-width="0.9"/>
<rect x="395.1" y="304.4" width="2.1" height="49.8" fill="#2f80ed" opacity="0.38" stroke="#1559a6" stroke-width="0.9"/>
<rect x="416.2" y="304.4" width="2.1" height="49.8" fill="#2f80ed" opacity="0.38" stroke="#1559a6" stroke-width="0.9"/>
<rect x="416.2" y="304.4" width="2.1" height="49.8" fill="#2f80ed" opacity="0.38" stroke="#1559a6" stroke-width="0.9"/>
<rect x="437.4" y="304.4" width="2.1" height="49.8" fill="#2f80ed" opacity="0.38" stroke="#1559a6" stroke-width="0.9"/>
<rect x="437.4" y="304.4" width="2.1" height="49.8" fill="#2f80ed" opacity="0.38" stroke="#1559a6" stroke-width="0.9"/>
<rect x="458.6" y="304.4" width="2.1" height="49.8" fill="#2f80ed" opacity="0.38" stroke="#1559a6" stroke-width="0.9"/>
<rect x="458.6" y="304.4" width="2.1" height="49.8" fill="#2f80ed" opacity="0.38" stroke="#1559a6" stroke-width="0.9"/>
<rect x="479.8" y="304.4" width="2.1" height="49.8" fill="#2f80ed" opacity="0.38" stroke="#1559a6" stroke-width="0.9"/>
<rect x="479.8" y="304.4" width="2.1" height="49.8" fill="#2f80ed" opacity="0.38" stroke="#1559a6" stroke-width="0.9"/>
<rect x="500.9" y="304.4" width="2.1" height="49.8" fill="#2f80ed" opacity="0.38" stroke="#1559a6" stroke-width="0.9"/>
<rect x="500.9" y="304.4" width="2.1" height="49.8" fill="#2f80ed" opacity="0.38" stroke="#1559a6" stroke-width="0.9"/>
<rect x="539.1" y="292.0" width="116.5" height="249.1" fill="#2f80ed" opacity="0.38" stroke="#1559a6" stroke-width="0.9"/>
<rect x="539.1" y="292.0" width="116.5" height="249.1" fill="#2f80ed" opacity="0.38" stroke="#1559a6" stroke-width="0.9"/>
<rect x="543.3" y="304.4" width="2.1" height="49.8" fill="#2f80ed" opacity="0.38" stroke="#1559a6" stroke-width="0.9"/>
<rect x="543.3" y="304.4" width="2.1" height="49.8" fill="#2f80ed" opacity="0.38" stroke="#1559a6" stroke-width="0.9"/>
<rect x="564.5" y="304.4" width="2.1" height="49.8" fill="#2f80ed" opacity="0.38" stroke="#1559a6" stroke-width="0.9"/>
<rect x="564.5" y="304.4" width="2.1" height="49.8" fill="#2f80ed" opacity="0.38" stroke="#1559a6" stroke-width="0.9"/>
<rect x="585.6" y="304.4" width="2.1" height="49.8" fill="#2f80ed" opacity="0.38" stroke="#1559a6" stroke-width="0.9"/>
<rect x="585.6" y="304.4" width="2.1" height="49.8" fill="#2f80ed" opacity="0.38" stroke="#1559a6" stroke-width="0.9"/>
<rect x="606.8" y="304.4" width="2.1" height="49.8" fill="#2f80ed" opacity="0.38" stroke="#1559a6" stroke-width="0.9"/>
<rect x="606.8" y="304.4" width="2.1" height="49.8" fill="#2f80ed" opacity="0.38" stroke="#1559a6" stroke-width="0.9"/>
<rect x="628.0" y="304.4" width="2.1" height="49.8" fill="#2f80ed" opacity="0.38" stroke="#1559a6" stroke-width="0.9"/>
<rect x="628.0" y="304.4" width="2.1" height="49.8" fill="#2f80ed" opacity="0.38" stroke="#1559a6" stroke-width="0.9"/>
<rect x="649.2" y="304.4" width="2.1" height="49.8" fill="#2f80ed" opacity="0.38" stroke="#1559a6" stroke-width="0.9"/>
<rect x="649.2" y="304.4" width="2.1" height="49.8" fill="#2f80ed" opacity="0.38" stroke="#1559a6" stroke-width="0.9"/>
<rect x="207.9" y="282.0" width="149.9" height="269.0" fill="none" stroke="#d93025" stroke-width="1.8"/>
<rect x="207.9" y="282.0" width="149.9" height="269.0" fill="none" stroke="#d93025" stroke-width="1.8"/>
<rect x="222.7" y="294.5" width="3.8" height="69.7" fill="none" stroke="#d93025" stroke-width="1.8"/>
<rect x="222.7" y="294.5" width="3.8" height="69.7" fill="none" stroke="#d93025" stroke-width="1.8"/>
<rect x="243.9" y="294.5" width="3.8" height="69.7" fill="none" stroke="#d93025" stroke-width="1.8"/>
<rect x="243.9" y="294.5" width="3.8" height="69.7" fill="none" stroke="#d93025" stroke-width="1.8"/>
<rect x="265.0" y="294.5" width="3.8" height="69.7" fill="none" stroke="#d93025" stroke-width="1.8"/>
<rect x="265.0" y="294.5" width="3.8" height="69.7" fill="none" stroke="#d93025" stroke-width="1.8"/>
<rect x="286.2" y="294.5" width="3.8" height="69.7" fill="none" stroke="#d93025" stroke-width="1.8"/>
<rect x="286.2" y="294.5" width="3.8" height="69.7" fill="none" stroke="#d93025" stroke-width="1.8"/>
<rect x="307.4" y="294.5" width="3.8" height="69.7" fill="none" stroke="#d93025" stroke-width="1.8"/>
<rect x="307.4" y="294.5" width="3.8" height="69.7" fill="none" stroke="#d93025" stroke-width="1.8"/>
<rect x="328.6" y="294.5" width="3.8" height="69.7" fill="none" stroke="#d93025" stroke-width="1.8"/>
<rect x="328.6" y="294.5" width="3.8" height="69.7" fill="none" stroke="#d93025" stroke-width="1.8"/>
<rect x="349.7" y="294.5" width="3.8" height="69.7" fill="none" stroke="#d93025" stroke-width="1.8"/>
<rect x="349.7" y="294.5" width="3.8" height="69.7" fill="none" stroke="#d93025" stroke-width="1.8"/>
<rect x="390.0" y="282.0" width="118.2" height="269.0" fill="none" stroke="#d93025" stroke-width="1.8"/>
<rect x="390.0" y="282.0" width="118.2" height="269.0" fill="none" stroke="#d93025" stroke-width="1.8"/>
<rect x="394.2" y="294.5" width="3.8" height="69.7" fill="none" stroke="#d93025" stroke-width="1.8"/>
<rect x="394.2" y="294.5" width="3.8" height="69.7" fill="none" stroke="#d93025" stroke-width="1.8"/>
<rect x="415.4" y="294.5" width="3.8" height="69.7" fill="none" stroke="#d93025" stroke-width="1.8"/>
<rect x="415.4" y="294.5" width="3.8" height="69.7" fill="none" stroke="#d93025" stroke-width="1.8"/>
<rect x="436.6" y="294.5" width="3.8" height="69.7" fill="none" stroke="#d93025" stroke-width="1.8"/>
<rect x="436.6" y="294.5" width="3.8" height="69.7" fill="none" stroke="#d93025" stroke-width="1.8"/>
<rect x="457.7" y="294.5" width="3.8" height="69.7" fill="none" stroke="#d93025" stroke-width="1.8"/>
<rect x="457.7" y="294.5" width="3.8" height="69.7" fill="none" stroke="#d93025" stroke-width="1.8"/>
<rect x="478.9" y="294.5" width="3.8" height="69.7" fill="none" stroke="#d93025" stroke-width="1.8"/>
<rect x="478.9" y="294.5" width="3.8" height="69.7" fill="none" stroke="#d93025" stroke-width="1.8"/>
<rect x="500.1" y="294.5" width="3.8" height="69.7" fill="none" stroke="#d93025" stroke-width="1.8"/>
<rect x="500.1" y="294.5" width="3.8" height="69.7" fill="none" stroke="#d93025" stroke-width="1.8"/>
<rect x="538.2" y="282.0" width="118.2" height="269.0" fill="none" stroke="#d93025" stroke-width="1.8"/>
<rect x="538.2" y="282.0" width="118.2" height="269.0" fill="none" stroke="#d93025" stroke-width="1.8"/>
<rect x="542.4" y="294.5" width="3.8" height="69.7" fill="none" stroke="#d93025" stroke-width="1.8"/>
<rect x="542.4" y="294.5" width="3.8" height="69.7" fill="none" stroke="#d93025" stroke-width="1.8"/>
<rect x="563.6" y="294.5" width="3.8" height="69.7" fill="none" stroke="#d93025" stroke-width="1.8"/>
<rect x="563.6" y="294.5" width="3.8" height="69.7" fill="none" stroke="#d93025" stroke-width="1.8"/>
<rect x="584.8" y="294.5" width="3.8" height="69.7" fill="none" stroke="#d93025" stroke-width="1.8"/>
<rect x="584.8" y="294.5" width="3.8" height="69.7" fill="none" stroke="#d93025" stroke-width="1.8"/>
<rect x="606.0" y="294.5" width="3.8" height="69.7" fill="none" stroke="#d93025" stroke-width="1.8"/>
<rect x="606.0" y="294.5" width="3.8" height="69.7" fill="none" stroke="#d93025" stroke-width="1.8"/>
<rect x="627.2" y="294.5" width="3.8" height="69.7" fill="none" stroke="#d93025" stroke-width="1.8"/>
<rect x="627.2" y="294.5" width="3.8" height="69.7" fill="none" stroke="#d93025" stroke-width="1.8"/>
<rect x="648.3" y="294.5" width="3.8" height="69.7" fill="none" stroke="#d93025" stroke-width="1.8"/>
<rect x="648.3" y="294.5" width="3.8" height="69.7" fill="none" stroke="#d93025" stroke-width="1.8"/>
<rect x="1331.2" y="254.6" width="29.8" height="473.2" fill="#555" opacity="0.20" stroke="#444" stroke-width="0.8"/>
<rect x="1450.5" y="254.6" width="29.8" height="473.2" fill="#555" opacity="0.20" stroke="#444" stroke-width="0.8"/>
<rect x="1374.5" y="292.0" width="29.8" height="249.1" fill="#2f80ed" opacity="0.25" stroke="#1559a6" stroke-width="0.8"/>
<rect x="1407.2" y="292.0" width="29.8" height="249.1" fill="#2f80ed" opacity="0.25" stroke="#1559a6" stroke-width="0.8"/>
<rect x="1361.0" y="304.4" width="29.8" height="49.8" fill="#2f80ed" opacity="0.25" stroke="#1559a6" stroke-width="0.8"/>
<rect x="1420.7" y="304.4" width="29.8" height="49.8" fill="#2f80ed" opacity="0.25" stroke="#1559a6" stroke-width="0.8"/>
<rect x="1361.0" y="304.4" width="29.8" height="49.8" fill="#2f80ed" opacity="0.25" stroke="#1559a6" stroke-width="0.8"/>
<rect x="1420.7" y="304.4" width="29.8" height="49.8" fill="#2f80ed" opacity="0.25" stroke="#1559a6" stroke-width="0.8"/>
<rect x="1361.0" y="304.4" width="29.8" height="49.8" fill="#2f80ed" opacity="0.25" stroke="#1559a6" stroke-width="0.8"/>
<rect x="1420.7" y="304.4" width="29.8" height="49.8" fill="#2f80ed" opacity="0.25" stroke="#1559a6" stroke-width="0.8"/>
<rect x="1361.0" y="304.4" width="29.8" height="49.8" fill="#2f80ed" opacity="0.25" stroke="#1559a6" stroke-width="0.8"/>
<rect x="1420.7" y="304.4" width="29.8" height="49.8" fill="#2f80ed" opacity="0.25" stroke="#1559a6" stroke-width="0.8"/>
<rect x="1361.0" y="304.4" width="29.8" height="49.8" fill="#2f80ed" opacity="0.25" stroke="#1559a6" stroke-width="0.8"/>
<rect x="1420.7" y="304.4" width="29.8" height="49.8" fill="#2f80ed" opacity="0.25" stroke="#1559a6" stroke-width="0.8"/>
<rect x="1361.0" y="304.4" width="29.8" height="49.8" fill="#2f80ed" opacity="0.25" stroke="#1559a6" stroke-width="0.8"/>
<rect x="1420.7" y="304.4" width="29.8" height="49.8" fill="#2f80ed" opacity="0.25" stroke="#1559a6" stroke-width="0.8"/>
<rect x="1361.0" y="304.4" width="29.8" height="49.8" fill="#2f80ed" opacity="0.25" stroke="#1559a6" stroke-width="0.8"/>
<rect x="1420.7" y="304.4" width="29.8" height="49.8" fill="#2f80ed" opacity="0.25" stroke="#1559a6" stroke-width="0.8"/>
<rect x="1374.5" y="292.0" width="29.8" height="249.1" fill="#2f80ed" opacity="0.25" stroke="#1559a6" stroke-width="0.8"/>
<rect x="1407.2" y="292.0" width="29.8" height="249.1" fill="#2f80ed" opacity="0.25" stroke="#1559a6" stroke-width="0.8"/>
<rect x="1361.0" y="304.4" width="29.8" height="49.8" fill="#2f80ed" opacity="0.25" stroke="#1559a6" stroke-width="0.8"/>
<rect x="1420.7" y="304.4" width="29.8" height="49.8" fill="#2f80ed" opacity="0.25" stroke="#1559a6" stroke-width="0.8"/>
<rect x="1361.0" y="304.4" width="29.8" height="49.8" fill="#2f80ed" opacity="0.25" stroke="#1559a6" stroke-width="0.8"/>
<rect x="1420.7" y="304.4" width="29.8" height="49.8" fill="#2f80ed" opacity="0.25" stroke="#1559a6" stroke-width="0.8"/>
<rect x="1361.0" y="304.4" width="29.8" height="49.8" fill="#2f80ed" opacity="0.25" stroke="#1559a6" stroke-width="0.8"/>
<rect x="1420.7" y="304.4" width="29.8" height="49.8" fill="#2f80ed" opacity="0.25" stroke="#1559a6" stroke-width="0.8"/>
<rect x="1361.0" y="304.4" width="29.8" height="49.8" fill="#2f80ed" opacity="0.25" stroke="#1559a6" stroke-width="0.8"/>
<rect x="1420.7" y="304.4" width="29.8" height="49.8" fill="#2f80ed" opacity="0.25" stroke="#1559a6" stroke-width="0.8"/>
<rect x="1361.0" y="304.4" width="29.8" height="49.8" fill="#2f80ed" opacity="0.25" stroke="#1559a6" stroke-width="0.8"/>
<rect x="1420.7" y="304.4" width="29.8" height="49.8" fill="#2f80ed" opacity="0.25" stroke="#1559a6" stroke-width="0.8"/>
<rect x="1361.0" y="304.4" width="29.8" height="49.8" fill="#2f80ed" opacity="0.25" stroke="#1559a6" stroke-width="0.8"/>
<rect x="1420.7" y="304.4" width="29.8" height="49.8" fill="#2f80ed" opacity="0.25" stroke="#1559a6" stroke-width="0.8"/>
<rect x="1374.5" y="292.0" width="29.8" height="249.1" fill="#2f80ed" opacity="0.25" stroke="#1559a6" stroke-width="0.8"/>
<rect x="1407.2" y="292.0" width="29.8" height="249.1" fill="#2f80ed" opacity="0.25" stroke="#1559a6" stroke-width="0.8"/>
<rect x="1361.0" y="304.4" width="29.8" height="49.8" fill="#2f80ed" opacity="0.25" stroke="#1559a6" stroke-width="0.8"/>
<rect x="1420.7" y="304.4" width="29.8" height="49.8" fill="#2f80ed" opacity="0.25" stroke="#1559a6" stroke-width="0.8"/>
<rect x="1361.0" y="304.4" width="29.8" height="49.8" fill="#2f80ed" opacity="0.25" stroke="#1559a6" stroke-width="0.8"/>
<rect x="1420.7" y="304.4" width="29.8" height="49.8" fill="#2f80ed" opacity="0.25" stroke="#1559a6" stroke-width="0.8"/>
<rect x="1361.0" y="304.4" width="29.8" height="49.8" fill="#2f80ed" opacity="0.25" stroke="#1559a6" stroke-width="0.8"/>
<rect x="1420.7" y="304.4" width="29.8" height="49.8" fill="#2f80ed" opacity="0.25" stroke="#1559a6" stroke-width="0.8"/>
<rect x="1361.0" y="304.4" width="29.8" height="49.8" fill="#2f80ed" opacity="0.25" stroke="#1559a6" stroke-width="0.8"/>
<rect x="1420.7" y="304.4" width="29.8" height="49.8" fill="#2f80ed" opacity="0.25" stroke="#1559a6" stroke-width="0.8"/>
<rect x="1361.0" y="304.4" width="29.8" height="49.8" fill="#2f80ed" opacity="0.25" stroke="#1559a6" stroke-width="0.8"/>
<rect x="1420.7" y="304.4" width="29.8" height="49.8" fill="#2f80ed" opacity="0.25" stroke="#1559a6" stroke-width="0.8"/>
<rect x="1361.0" y="304.4" width="29.8" height="49.8" fill="#2f80ed" opacity="0.25" stroke="#1559a6" stroke-width="0.8"/>
<rect x="1420.7" y="304.4" width="29.8" height="49.8" fill="#2f80ed" opacity="0.25" stroke="#1559a6" stroke-width="0.8"/>
<rect x="1373.0" y="282.0" width="32.8" height="269.0" fill="none" stroke="#d93025" stroke-width="1.5" opacity="0.85"/>
<rect x="1405.8" y="282.0" width="32.8" height="269.0" fill="none" stroke="#d93025" stroke-width="1.5" opacity="0.85"/>
<rect x="1359.6" y="294.5" width="32.8" height="69.7" fill="none" stroke="#d93025" stroke-width="1.5" opacity="0.85"/>
<rect x="1419.2" y="294.5" width="32.8" height="69.7" fill="none" stroke="#d93025" stroke-width="1.5" opacity="0.85"/>
<rect x="1359.6" y="294.5" width="32.8" height="69.7" fill="none" stroke="#d93025" stroke-width="1.5" opacity="0.85"/>
<rect x="1419.2" y="294.5" width="32.8" height="69.7" fill="none" stroke="#d93025" stroke-width="1.5" opacity="0.85"/>
<rect x="1359.6" y="294.5" width="32.8" height="69.7" fill="none" stroke="#d93025" stroke-width="1.5" opacity="0.85"/>
<rect x="1419.2" y="294.5" width="32.8" height="69.7" fill="none" stroke="#d93025" stroke-width="1.5" opacity="0.85"/>
<rect x="1359.6" y="294.5" width="32.8" height="69.7" fill="none" stroke="#d93025" stroke-width="1.5" opacity="0.85"/>
<rect x="1419.2" y="294.5" width="32.8" height="69.7" fill="none" stroke="#d93025" stroke-width="1.5" opacity="0.85"/>
<rect x="1359.6" y="294.5" width="32.8" height="69.7" fill="none" stroke="#d93025" stroke-width="1.5" opacity="0.85"/>
<rect x="1419.2" y="294.5" width="32.8" height="69.7" fill="none" stroke="#d93025" stroke-width="1.5" opacity="0.85"/>
<rect x="1359.6" y="294.5" width="32.8" height="69.7" fill="none" stroke="#d93025" stroke-width="1.5" opacity="0.85"/>
<rect x="1419.2" y="294.5" width="32.8" height="69.7" fill="none" stroke="#d93025" stroke-width="1.5" opacity="0.85"/>
<rect x="1359.6" y="294.5" width="32.8" height="69.7" fill="none" stroke="#d93025" stroke-width="1.5" opacity="0.85"/>
<rect x="1419.2" y="294.5" width="32.8" height="69.7" fill="none" stroke="#d93025" stroke-width="1.5" opacity="0.85"/>
<rect x="1373.0" y="282.0" width="32.8" height="269.0" fill="none" stroke="#d93025" stroke-width="1.5" opacity="0.85"/>
<rect x="1405.8" y="282.0" width="32.8" height="269.0" fill="none" stroke="#d93025" stroke-width="1.5" opacity="0.85"/>
<rect x="1359.6" y="294.5" width="32.8" height="69.7" fill="none" stroke="#d93025" stroke-width="1.5" opacity="0.85"/>
<rect x="1419.2" y="294.5" width="32.8" height="69.7" fill="none" stroke="#d93025" stroke-width="1.5" opacity="0.85"/>
<rect x="1359.6" y="294.5" width="32.8" height="69.7" fill="none" stroke="#d93025" stroke-width="1.5" opacity="0.85"/>
<rect x="1419.2" y="294.5" width="32.8" height="69.7" fill="none" stroke="#d93025" stroke-width="1.5" opacity="0.85"/>
<rect x="1359.6" y="294.5" width="32.8" height="69.7" fill="none" stroke="#d93025" stroke-width="1.5" opacity="0.85"/>
<rect x="1419.2" y="294.5" width="32.8" height="69.7" fill="none" stroke="#d93025" stroke-width="1.5" opacity="0.85"/>
<rect x="1359.6" y="294.5" width="32.8" height="69.7" fill="none" stroke="#d93025" stroke-width="1.5" opacity="0.85"/>
<rect x="1419.2" y="294.5" width="32.8" height="69.7" fill="none" stroke="#d93025" stroke-width="1.5" opacity="0.85"/>
<rect x="1359.6" y="294.5" width="32.8" height="69.7" fill="none" stroke="#d93025" stroke-width="1.5" opacity="0.85"/>
<rect x="1419.2" y="294.5" width="32.8" height="69.7" fill="none" stroke="#d93025" stroke-width="1.5" opacity="0.85"/>
<rect x="1359.6" y="294.5" width="32.8" height="69.7" fill="none" stroke="#d93025" stroke-width="1.5" opacity="0.85"/>
<rect x="1419.2" y="294.5" width="32.8" height="69.7" fill="none" stroke="#d93025" stroke-width="1.5" opacity="0.85"/>
<rect x="1373.0" y="282.0" width="32.8" height="269.0" fill="none" stroke="#d93025" stroke-width="1.5" opacity="0.85"/>
<rect x="1405.8" y="282.0" width="32.8" height="269.0" fill="none" stroke="#d93025" stroke-width="1.5" opacity="0.85"/>
<rect x="1359.6" y="294.5" width="32.8" height="69.7" fill="none" stroke="#d93025" stroke-width="1.5" opacity="0.85"/>
<rect x="1419.2" y="294.5" width="32.8" height="69.7" fill="none" stroke="#d93025" stroke-width="1.5" opacity="0.85"/>
<rect x="1359.6" y="294.5" width="32.8" height="69.7" fill="none" stroke="#d93025" stroke-width="1.5" opacity="0.85"/>
<rect x="1419.2" y="294.5" width="32.8" height="69.7" fill="none" stroke="#d93025" stroke-width="1.5" opacity="0.85"/>
<rect x="1359.6" y="294.5" width="32.8" height="69.7" fill="none" stroke="#d93025" stroke-width="1.5" opacity="0.85"/>
<rect x="1419.2" y="294.5" width="32.8" height="69.7" fill="none" stroke="#d93025" stroke-width="1.5" opacity="0.85"/>
<rect x="1359.6" y="294.5" width="32.8" height="69.7" fill="none" stroke="#d93025" stroke-width="1.5" opacity="0.85"/>
<rect x="1419.2" y="294.5" width="32.8" height="69.7" fill="none" stroke="#d93025" stroke-width="1.5" opacity="0.85"/>
<rect x="1359.6" y="294.5" width="32.8" height="69.7" fill="none" stroke="#d93025" stroke-width="1.5" opacity="0.85"/>
<rect x="1419.2" y="294.5" width="32.8" height="69.7" fill="none" stroke="#d93025" stroke-width="1.5" opacity="0.85"/>
<rect x="1359.6" y="294.5" width="32.8" height="69.7" fill="none" stroke="#d93025" stroke-width="1.5" opacity="0.85"/>
<rect x="1419.2" y="294.5" width="32.8" height="69.7" fill="none" stroke="#d93025" stroke-width="1.5" opacity="0.85"/>
<circle cx="830" cy="416.5" r="4" fill="#d93025"/>
<text x="842" y="420.5" font-size="13" font-family="Arial, Microsoft YaHei" fill="#333">长板本体: 中心Y=8, 高度=5，死亡区 Y=8 高度5.4</text>
<circle cx="830" cy="329.3" r="4" fill="#d93025"/>
<text x="842" y="333.3" font-size="13" font-family="Arial, Microsoft YaHei" fill="#333">细杆本体: 中心Y=9.75, 高度=1，死亡区 Y=9.75 高度1.4</text>
<circle cx="830" cy="491.2" r="4" fill="#d93025"/>
<text x="842" y="495.2" font-size="13" font-family="Arial, Microsoft YaHei" fill="#333">固定高墙: 中心Y=6.5, 高度=9.5，高墙不是运动死亡区</text>
<line x1="1375.9" y1="155" x2="1375.9" y2="815" stroke="#999" stroke-width="1" stroke-dasharray="3 5" opacity="0.45"/>
<text x="1378.9" y="833" font-size="11" font-family="Arial" fill="#666">Z=-26.25</text>
<line x1="1389.4" y1="155" x2="1389.4" y2="815" stroke="#999" stroke-width="1" stroke-dasharray="3 5" opacity="0.45"/>
<text x="1392.4" y="833" font-size="11" font-family="Arial" fill="#666">Z=-24.45</text>
<line x1="1422.1" y1="155" x2="1422.1" y2="815" stroke="#999" stroke-width="1" stroke-dasharray="3 5" opacity="0.45"/>
<text x="1425.1" y="833" font-size="11" font-family="Arial" fill="#666">Z=-20.05</text>
<line x1="1435.6" y1="155" x2="1435.6" y2="815" stroke="#999" stroke-width="1" stroke-dasharray="3 5" opacity="0.45"/>
<text x="1438.6" y="833" font-size="11" font-family="Arial" fill="#666">Z=-18.25</text>
<rect x="54" y="888" width="1606" height="112" fill="white" stroke="#ccc"/>
<rect x="84" y="907" width="36" height="16" fill="#2f80ed" opacity="0.38" stroke="#1559a6"/>
<text x="132" y="920" font-size="14" font-family="Arial, Microsoft YaHei" fill="#333">运动机关本体</text>
<rect x="280" y="907" width="36" height="16" fill="none" stroke="#d93025" stroke-width="2"/>
<text x="328" y="920" font-size="14" font-family="Arial, Microsoft YaHei" fill="#333">红色死亡触发区轮廓：按本体中心Y和高度外扩0.2</text>
<rect x="760" y="907" width="36" height="16" fill="#555" opacity="0.25" stroke="#444"/>
<text x="808" y="920" font-size="14" font-family="Arial, Microsoft YaHei" fill="#333">固定高墙，仅作高度参照</text>
<text x="84" y="956" font-size="14" font-family="Arial, Microsoft YaHei" fill="#555">理解重点：长板和细杆不是同一高度。长板中心Y=8，范围约5.5~10.5；细杆中心Y=9.75，范围约9.25~10.25。死亡区红框分别按各自中心和高度套住。</text>
<text x="84" y="982" font-size="14" font-family="Arial, Microsoft YaHei" fill="#555">如果死亡区作为子组件，position应是局部(0,0,0)让它落回对应本体中心；尺寸/高度才体现为红色轮廓外扩。</text>
</svg>