<svg xmlns="http://www.w3.org/2000/svg" width="1720" height="1040" viewBox="0 0 1720 1040">
<rect width="100%" height="100%" fill="#f8f8f4"/>
<text x="54" y="38" font-size="25" font-family="Arial, Microsoft YaHei" fill="#222">第8关数据结构内的死亡触发区侧视图</text>
<text x="54" y="66" font-size="14" font-family="Arial, Microsoft YaHei" fill="#555">红色轮廓=死亡触发区局部位置归零后，落在机关本体中心的位置；蓝色=运动机关；灰色=静态结构/高墙。</text>
<rect x="54" y="96" width="760" height="760" fill="white" stroke="#c7c7c7"/>
<text x="68" y="121" font-size="16" font-family="Arial, Microsoft YaHei" fill="#333">A. 数据结构俯视：红色轮廓落在结构内</text>
<rect x="870" y="96" width="790" height="760" fill="white" stroke="#c7c7c7"/>
<text x="884" y="121" font-size="16" font-family="Arial, Microsoft YaHei" fill="#333">B. X/Y 侧视：红色轮廓贴住不同高度的机关</text>
<line x1="84.0" y1="142" x2="84.0" y2="822" stroke="#e7e7e0"/>
<line x1="84" y1="142.0" x2="784" y2="142.0" stroke="#e7e7e0"/>
<line x1="900.0" y1="142" x2="900.0" y2="822" stroke="#e7e7e0"/>
<line x1="900" y1="142.0" x2="1630" y2="142.0" stroke="#e7e7e0"/>
<line x1="154.0" y1="142" x2="154.0" y2="822" stroke="#e7e7e0"/>
<line x1="84" y1="210.0" x2="784" y2="210.0" stroke="#e7e7e0"/>
<line x1="973.0" y1="142" x2="973.0" y2="822" stroke="#e7e7e0"/>
<line x1="900" y1="210.0" x2="1630" y2="210.0" stroke="#e7e7e0"/>
<line x1="224.0" y1="142" x2="224.0" y2="822" stroke="#e7e7e0"/>
<line x1="84" y1="278.0" x2="784" y2="278.0" stroke="#e7e7e0"/>
<line x1="1046.0" y1="142" x2="1046.0" y2="822" stroke="#e7e7e0"/>
<line x1="900" y1="278.0" x2="1630" y2="278.0" stroke="#e7e7e0"/>
<line x1="294.0" y1="142" x2="294.0" y2="822" stroke="#e7e7e0"/>
<line x1="84" y1="346.0" x2="784" y2="346.0" stroke="#e7e7e0"/>
<line x1="1119.0" y1="142" x2="1119.0" y2="822" stroke="#e7e7e0"/>
<line x1="900" y1="346.0" x2="1630" y2="346.0" stroke="#e7e7e0"/>
<line x1="364.0" y1="142" x2="364.0" y2="822" stroke="#e7e7e0"/>
<line x1="84" y1="414.0" x2="784" y2="414.0" stroke="#e7e7e0"/>
<line x1="1192.0" y1="142" x2="1192.0" y2="822" stroke="#e7e7e0"/>
<line x1="900" y1="414.0" x2="1630" y2="414.0" stroke="#e7e7e0"/>
<line x1="434.0" y1="142" x2="434.0" y2="822" stroke="#e7e7e0"/>
<line x1="84" y1="482.0" x2="784" y2="482.0" stroke="#e7e7e0"/>
<line x1="1265.0" y1="142" x2="1265.0" y2="822" stroke="#e7e7e0"/>
<line x1="900" y1="482.0" x2="1630" y2="482.0" stroke="#e7e7e0"/>
<line x1="504.0" y1="142" x2="504.0" y2="822" stroke="#e7e7e0"/>
<line x1="84" y1="550.0" x2="784" y2="550.0" stroke="#e7e7e0"/>
<line x1="1338.0" y1="142" x2="1338.0" y2="822" stroke="#e7e7e0"/>
<line x1="900" y1="550.0" x2="1630" y2="550.0" stroke="#e7e7e0"/>
<line x1="574.0" y1="142" x2="574.0" y2="822" stroke="#e7e7e0"/>
<line x1="84" y1="618.0" x2="784" y2="618.0" stroke="#e7e7e0"/>
<line x1="1411.0" y1="142" x2="1411.0" y2="822" stroke="#e7e7e0"/>
<line x1="900" y1="618.0" x2="1630" y2="618.0" stroke="#e7e7e0"/>
<line x1="644.0" y1="142" x2="644.0" y2="822" stroke="#e7e7e0"/>
<line x1="84" y1="686.0" x2="784" y2="686.0" stroke="#e7e7e0"/>
<line x1="1484.0" y1="142" x2="1484.0" y2="822" stroke="#e7e7e0"/>
<line x1="900" y1="686.0" x2="1630" y2="686.0" stroke="#e7e7e0"/>
<line x1="714.0" y1="142" x2="714.0" y2="822" stroke="#e7e7e0"/>
<line x1="84" y1="754.0" x2="784" y2="754.0" stroke="#e7e7e0"/>
<line x1="1557.0" y1="142" x2="1557.0" y2="822" stroke="#e7e7e0"/>
<line x1="900" y1="754.0" x2="1630" y2="754.0" stroke="#e7e7e0"/>
<line x1="784.0" y1="142" x2="784.0" y2="822" stroke="#e7e7e0"/>
<line x1="84" y1="822.0" x2="784" y2="822.0" stroke="#e7e7e0"/>
<line x1="1630.0" y1="142" x2="1630.0" y2="822" stroke="#e7e7e0"/>
<line x1="900" y1="822.0" x2="1630" y2="822.0" stroke="#e7e7e0"/>
<rect x="115.8" y="416.4" width="79.5" height="305.9" fill="#c9c9bf" opacity="0.68" stroke="#85857d" stroke-width="1"/>
<rect x="195.4" y="530.1" width="445.5" height="139.8" fill="#c9c9bf" opacity="0.68" stroke="#85857d" stroke-width="1"/>
<rect x="195.4" y="530.1" width="445.5" height="28.0" fill="#555" opacity="0.32" stroke="#444" stroke-width="1"/>
<rect x="195.4" y="641.9" width="445.5" height="28.0" fill="#555" opacity="0.32" stroke="#444" stroke-width="1"/>
<rect x="209.3" y="570.6" width="139.2" height="28.0" fill="#2f80ed" opacity="0.45" stroke="#1559a6" stroke-width="1"/>
<rect x="209.3" y="601.4" width="139.2" height="28.0" fill="#2f80ed" opacity="0.45" stroke="#1559a6" stroke-width="1"/>
<rect x="223.2" y="558.0" width="2.0" height="28.0" fill="#2f80ed" opacity="0.45" stroke="#1559a6" stroke-width="1"/>
<rect x="223.2" y="614.0" width="2.0" height="28.0" fill="#2f80ed" opacity="0.45" stroke="#1559a6" stroke-width="1"/>
<rect x="225.6" y="197.9" width="47.7" height="87.4" fill="#c9c9bf" opacity="0.68" stroke="#85857d" stroke-width="1"/>
<rect x="243.1" y="558.0" width="2.0" height="28.0" fill="#2f80ed" opacity="0.45" stroke="#1559a6" stroke-width="1"/>
<rect x="243.1" y="614.0" width="2.0" height="28.0" fill="#2f80ed" opacity="0.45" stroke="#1559a6" stroke-width="1"/>
<rect x="263.0" y="558.0" width="2.0" height="28.0" fill="#2f80ed" opacity="0.45" stroke="#1559a6" stroke-width="1"/>
<rect x="263.0" y="614.0" width="2.0" height="28.0" fill="#2f80ed" opacity="0.45" stroke="#1559a6" stroke-width="1"/>
<rect x="282.9" y="558.0" width="2.0" height="28.0" fill="#2f80ed" opacity="0.45" stroke="#1559a6" stroke-width="1"/>
<rect x="282.9" y="614.0" width="2.0" height="28.0" fill="#2f80ed" opacity="0.45" stroke="#1559a6" stroke-width="1"/>
<rect x="302.7" y="558.0" width="2.0" height="28.0" fill="#2f80ed" opacity="0.45" stroke="#1559a6" stroke-width="1"/>
<rect x="302.7" y="614.0" width="2.0" height="28.0" fill="#2f80ed" opacity="0.45" stroke="#1559a6" stroke-width="1"/>
<rect x="322.6" y="558.0" width="2.0" height="28.0" fill="#2f80ed" opacity="0.45" stroke="#1559a6" stroke-width="1"/>
<rect x="322.6" y="614.0" width="2.0" height="28.0" fill="#2f80ed" opacity="0.45" stroke="#1559a6" stroke-width="1"/>
<rect x="342.5" y="558.0" width="2.0" height="28.0" fill="#2f80ed" opacity="0.45" stroke="#1559a6" stroke-width="1"/>
<rect x="342.5" y="614.0" width="2.0" height="28.0" fill="#2f80ed" opacity="0.45" stroke="#1559a6" stroke-width="1"/>
<rect x="380.3" y="570.6" width="109.4" height="28.0" fill="#2f80ed" opacity="0.45" stroke="#1559a6" stroke-width="1"/>
<rect x="380.3" y="601.4" width="109.4" height="28.0" fill="#2f80ed" opacity="0.45" stroke="#1559a6" stroke-width="1"/>
<rect x="384.3" y="558.0" width="2.0" height="28.0" fill="#2f80ed" opacity="0.45" stroke="#1559a6" stroke-width="1"/>
<rect x="384.3" y="614.0" width="2.0" height="28.0" fill="#2f80ed" opacity="0.45" stroke="#1559a6" stroke-width="1"/>
<rect x="404.2" y="558.0" width="2.0" height="28.0" fill="#2f80ed" opacity="0.45" stroke="#1559a6" stroke-width="1"/>
<rect x="404.2" y="614.0" width="2.0" height="28.0" fill="#2f80ed" opacity="0.45" stroke="#1559a6" stroke-width="1"/>
<rect x="416.5" y="197.9" width="47.7" height="87.4" fill="#c9c9bf" opacity="0.68" stroke="#85857d" stroke-width="1"/>
<rect x="424.1" y="558.0" width="2.0" height="28.0" fill="#2f80ed" opacity="0.45" stroke="#1559a6" stroke-width="1"/>
<rect x="424.1" y="614.0" width="2.0" height="28.0" fill="#2f80ed" opacity="0.45" stroke="#1559a6" stroke-width="1"/>
<rect x="443.9" y="558.0" width="2.0" height="28.0" fill="#2f80ed" opacity="0.45" stroke="#1559a6" stroke-width="1"/>
<rect x="443.9" y="614.0" width="2.0" height="28.0" fill="#2f80ed" opacity="0.45" stroke="#1559a6" stroke-width="1"/>
<rect x="463.8" y="558.0" width="2.0" height="28.0" fill="#2f80ed" opacity="0.45" stroke="#1559a6" stroke-width="1"/>
<rect x="463.8" y="614.0" width="2.0" height="28.0" fill="#2f80ed" opacity="0.45" stroke="#1559a6" stroke-width="1"/>
<rect x="483.7" y="558.0" width="2.0" height="28.0" fill="#2f80ed" opacity="0.45" stroke="#1559a6" stroke-width="1"/>
<rect x="483.7" y="614.0" width="2.0" height="28.0" fill="#2f80ed" opacity="0.45" stroke="#1559a6" stroke-width="1"/>
<rect x="519.5" y="570.6" width="109.4" height="28.0" fill="#2f80ed" opacity="0.45" stroke="#1559a6" stroke-width="1"/>
<rect x="519.5" y="601.4" width="109.4" height="28.0" fill="#2f80ed" opacity="0.45" stroke="#1559a6" stroke-width="1"/>
<rect x="523.5" y="558.0" width="2.0" height="28.0" fill="#2f80ed" opacity="0.45" stroke="#1559a6" stroke-width="1"/>
<rect x="523.5" y="614.0" width="2.0" height="28.0" fill="#2f80ed" opacity="0.45" stroke="#1559a6" stroke-width="1"/>
<rect x="543.4" y="558.0" width="2.0" height="28.0" fill="#2f80ed" opacity="0.45" stroke="#1559a6" stroke-width="1"/>
<rect x="543.4" y="614.0" width="2.0" height="28.0" fill="#2f80ed" opacity="0.45" stroke="#1559a6" stroke-width="1"/>
<rect x="563.3" y="558.0" width="2.0" height="28.0" fill="#2f80ed" opacity="0.45" stroke="#1559a6" stroke-width="1"/>
<rect x="563.3" y="614.0" width="2.0" height="28.0" fill="#2f80ed" opacity="0.45" stroke="#1559a6" stroke-width="1"/>
<rect x="583.1" y="558.0" width="2.0" height="28.0" fill="#2f80ed" opacity="0.45" stroke="#1559a6" stroke-width="1"/>
<rect x="583.1" y="614.0" width="2.0" height="28.0" fill="#2f80ed" opacity="0.45" stroke="#1559a6" stroke-width="1"/>
<rect x="603.0" y="558.0" width="2.0" height="28.0" fill="#2f80ed" opacity="0.45" stroke="#1559a6" stroke-width="1"/>
<rect x="603.0" y="614.0" width="2.0" height="28.0" fill="#2f80ed" opacity="0.45" stroke="#1559a6" stroke-width="1"/>
<rect x="622.9" y="558.0" width="2.0" height="28.0" fill="#2f80ed" opacity="0.45" stroke="#1559a6" stroke-width="1"/>
<rect x="622.9" y="614.0" width="2.0" height="28.0" fill="#2f80ed" opacity="0.45" stroke="#1559a6" stroke-width="1"/>
<rect x="640.8" y="267.9" width="47.7" height="472.0" fill="#c9c9bf" opacity="0.68" stroke="#85857d" stroke-width="1"/>
<rect x="688.5" y="241.6" width="63.6" height="524.4" fill="#c9c9bf" opacity="0.68" stroke="#85857d" stroke-width="1"/>
<rect x="208.5" y="569.2" width="140.8" height="30.8" fill="none" stroke="#d93025" stroke-width="2.2"/>
<rect x="208.5" y="600.0" width="140.8" height="30.8" fill="none" stroke="#d93025" stroke-width="2.2"/>
<rect x="222.4" y="556.6" width="3.6" height="30.8" fill="none" stroke="#d93025" stroke-width="2.2"/>
<rect x="222.4" y="612.6" width="3.6" height="30.8" fill="none" stroke="#d93025" stroke-width="2.2"/>
<rect x="242.3" y="556.6" width="3.6" height="30.8" fill="none" stroke="#d93025" stroke-width="2.2"/>
<rect x="242.3" y="612.6" width="3.6" height="30.8" fill="none" stroke="#d93025" stroke-width="2.2"/>
<rect x="262.2" y="556.6" width="3.6" height="30.8" fill="none" stroke="#d93025" stroke-width="2.2"/>
<rect x="262.2" y="612.6" width="3.6" height="30.8" fill="none" stroke="#d93025" stroke-width="2.2"/>
<rect x="282.1" y="556.6" width="3.6" height="30.8" fill="none" stroke="#d93025" stroke-width="2.2"/>
<rect x="282.1" y="612.6" width="3.6" height="30.8" fill="none" stroke="#d93025" stroke-width="2.2"/>
<rect x="302.0" y="556.6" width="3.6" height="30.8" fill="none" stroke="#d93025" stroke-width="2.2"/>
<rect x="302.0" y="612.6" width="3.6" height="30.8" fill="none" stroke="#d93025" stroke-width="2.2"/>
<rect x="321.8" y="556.6" width="3.6" height="30.8" fill="none" stroke="#d93025" stroke-width="2.2"/>
<rect x="321.8" y="612.6" width="3.6" height="30.8" fill="none" stroke="#d93025" stroke-width="2.2"/>
<rect x="341.7" y="556.6" width="3.6" height="30.8" fill="none" stroke="#d93025" stroke-width="2.2"/>
<rect x="341.7" y="612.6" width="3.6" height="30.8" fill="none" stroke="#d93025" stroke-width="2.2"/>
<rect x="379.5" y="569.2" width="111.0" height="30.8" fill="none" stroke="#d93025" stroke-width="2.2"/>
<rect x="379.5" y="600.0" width="111.0" height="30.8" fill="none" stroke="#d93025" stroke-width="2.2"/>
<rect x="383.5" y="556.6" width="3.6" height="30.8" fill="none" stroke="#d93025" stroke-width="2.2"/>
<rect x="383.5" y="612.6" width="3.6" height="30.8" fill="none" stroke="#d93025" stroke-width="2.2"/>
<rect x="403.4" y="556.6" width="3.6" height="30.8" fill="none" stroke="#d93025" stroke-width="2.2"/>
<rect x="403.4" y="612.6" width="3.6" height="30.8" fill="none" stroke="#d93025" stroke-width="2.2"/>
<rect x="423.3" y="556.6" width="3.6" height="30.8" fill="none" stroke="#d93025" stroke-width="2.2"/>
<rect x="423.3" y="612.6" width="3.6" height="30.8" fill="none" stroke="#d93025" stroke-width="2.2"/>
<rect x="443.1" y="556.6" width="3.6" height="30.8" fill="none" stroke="#d93025" stroke-width="2.2"/>
<rect x="443.1" y="612.6" width="3.6" height="30.8" fill="none" stroke="#d93025" stroke-width="2.2"/>
<rect x="463.0" y="556.6" width="3.6" height="30.8" fill="none" stroke="#d93025" stroke-width="2.2"/>
<rect x="463.0" y="612.6" width="3.6" height="30.8" fill="none" stroke="#d93025" stroke-width="2.2"/>
<rect x="482.9" y="556.6" width="3.6" height="30.8" fill="none" stroke="#d93025" stroke-width="2.2"/>
<rect x="482.9" y="612.6" width="3.6" height="30.8" fill="none" stroke="#d93025" stroke-width="2.2"/>
<rect x="518.7" y="569.2" width="111.0" height="30.8" fill="none" stroke="#d93025" stroke-width="2.2"/>
<rect x="518.7" y="600.0" width="111.0" height="30.8" fill="none" stroke="#d93025" stroke-width="2.2"/>
<rect x="522.7" y="556.6" width="3.6" height="30.8" fill="none" stroke="#d93025" stroke-width="2.2"/>
<rect x="522.7" y="612.6" width="3.6" height="30.8" fill="none" stroke="#d93025" stroke-width="2.2"/>
<rect x="542.6" y="556.6" width="3.6" height="30.8" fill="none" stroke="#d93025" stroke-width="2.2"/>
<rect x="542.6" y="612.6" width="3.6" height="30.8" fill="none" stroke="#d93025" stroke-width="2.2"/>
<rect x="562.5" y="556.6" width="3.6" height="30.8" fill="none" stroke="#d93025" stroke-width="2.2"/>
<rect x="562.5" y="612.6" width="3.6" height="30.8" fill="none" stroke="#d93025" stroke-width="2.2"/>
<rect x="582.4" y="556.6" width="3.6" height="30.8" fill="none" stroke="#d93025" stroke-width="2.2"/>
<rect x="582.4" y="612.6" width="3.6" height="30.8" fill="none" stroke="#d93025" stroke-width="2.2"/>
<rect x="602.2" y="556.6" width="3.6" height="30.8" fill="none" stroke="#d93025" stroke-width="2.2"/>
<rect x="602.2" y="612.6" width="3.6" height="30.8" fill="none" stroke="#d93025" stroke-width="2.2"/>
<rect x="622.1" y="556.6" width="3.6" height="30.8" fill="none" stroke="#d93025" stroke-width="2.2"/>
<rect x="622.1" y="612.6" width="3.6" height="30.8" fill="none" stroke="#d93025" stroke-width="2.2"/>
<line x1="900" y1="767.2" x2="1630" y2="767.2" stroke="#999" stroke-width="1"/>
<text x="905" y="763.2" font-size="11" font-family="Arial" fill="#777">Y=0</text>
<rect x="925.5" y="547.8" width="84.9" height="131.6" fill="#c9c9bf" opacity="0.55" stroke="#85857d" stroke-width="0.9"/>
<rect x="1010.3" y="547.8" width="475.3" height="131.6" fill="#c9c9bf" opacity="0.55" stroke="#85857d" stroke-width="0.9"/>
<rect x="1010.3" y="273.6" width="475.3" height="416.8" fill="#555" opacity="0.28" stroke="#444" stroke-width="0.9"/>
<rect x="1010.3" y="273.6" width="475.3" height="416.8" fill="#555" opacity="0.28" stroke="#444" stroke-width="0.9"/>
<rect x="1025.2" y="306.5" width="148.5" height="219.4" fill="#2f80ed" opacity="0.38" stroke="#1559a6" stroke-width="0.9"/>
<rect x="1025.2" y="306.5" width="148.5" height="219.4" fill="#2f80ed" opacity="0.38" stroke="#1559a6" stroke-width="0.9"/>
<rect x="1040.1" y="317.5" width="2.1" height="43.9" fill="#2f80ed" opacity="0.38" stroke="#1559a6" stroke-width="0.9"/>
<rect x="1040.1" y="317.5" width="2.1" height="43.9" fill="#2f80ed" opacity="0.38" stroke="#1559a6" stroke-width="0.9"/>
<rect x="1042.6" y="547.8" width="50.9" height="131.6" fill="#c9c9bf" opacity="0.55" stroke="#85857d" stroke-width="0.9"/>
<rect x="1061.3" y="317.5" width="2.1" height="43.9" fill="#2f80ed" opacity="0.38" stroke="#1559a6" stroke-width="0.9"/>
<rect x="1061.3" y="317.5" width="2.1" height="43.9" fill="#2f80ed" opacity="0.38" stroke="#1559a6" stroke-width="0.9"/>
<rect x="1082.5" y="317.5" width="2.1" height="43.9" fill="#2f80ed" opacity="0.38" stroke="#1559a6" stroke-width="0.9"/>
<rect x="1082.5" y="317.5" width="2.1" height="43.9" fill="#2f80ed" opacity="0.38" stroke="#1559a6" stroke-width="0.9"/>
<rect x="1103.7" y="317.5" width="2.1" height="43.9" fill="#2f80ed" opacity="0.38" stroke="#1559a6" stroke-width="0.9"/>
<rect x="1103.7" y="317.5" width="2.1" height="43.9" fill="#2f80ed" opacity="0.38" stroke="#1559a6" stroke-width="0.9"/>
<rect x="1124.9" y="317.5" width="2.1" height="43.9" fill="#2f80ed" opacity="0.38" stroke="#1559a6" stroke-width="0.9"/>
<rect x="1124.9" y="317.5" width="2.1" height="43.9" fill="#2f80ed" opacity="0.38" stroke="#1559a6" stroke-width="0.9"/>
<rect x="1146.2" y="317.5" width="2.1" height="43.9" fill="#2f80ed" opacity="0.38" stroke="#1559a6" stroke-width="0.9"/>
<rect x="1146.2" y="317.5" width="2.1" height="43.9" fill="#2f80ed" opacity="0.38" stroke="#1559a6" stroke-width="0.9"/>
<rect x="1167.4" y="317.5" width="2.1" height="43.9" fill="#2f80ed" opacity="0.38" stroke="#1559a6" stroke-width="0.9"/>
<rect x="1167.4" y="317.5" width="2.1" height="43.9" fill="#2f80ed" opacity="0.38" stroke="#1559a6" stroke-width="0.9"/>
<rect x="1207.7" y="306.5" width="116.7" height="219.4" fill="#2f80ed" opacity="0.38" stroke="#1559a6" stroke-width="0.9"/>
<rect x="1207.7" y="306.5" width="116.7" height="219.4" fill="#2f80ed" opacity="0.38" stroke="#1559a6" stroke-width="0.9"/>
<rect x="1211.9" y="317.5" width="2.1" height="43.9" fill="#2f80ed" opacity="0.38" stroke="#1559a6" stroke-width="0.9"/>
<rect x="1211.9" y="317.5" width="2.1" height="43.9" fill="#2f80ed" opacity="0.38" stroke="#1559a6" stroke-width="0.9"/>
<rect x="1233.2" y="317.5" width="2.1" height="43.9" fill="#2f80ed" opacity="0.38" stroke="#1559a6" stroke-width="0.9"/>
<rect x="1233.2" y="317.5" width="2.1" height="43.9" fill="#2f80ed" opacity="0.38" stroke="#1559a6" stroke-width="0.9"/>
<rect x="1246.3" y="547.8" width="50.9" height="131.6" fill="#c9c9bf" opacity="0.55" stroke="#85857d" stroke-width="0.9"/>
<rect x="1254.4" y="317.5" width="2.1" height="43.9" fill="#2f80ed" opacity="0.38" stroke="#1559a6" stroke-width="0.9"/>
<rect x="1254.4" y="317.5" width="2.1" height="43.9" fill="#2f80ed" opacity="0.38" stroke="#1559a6" stroke-width="0.9"/>
<rect x="1275.6" y="317.5" width="2.1" height="43.9" fill="#2f80ed" opacity="0.38" stroke="#1559a6" stroke-width="0.9"/>
<rect x="1275.6" y="317.5" width="2.1" height="43.9" fill="#2f80ed" opacity="0.38" stroke="#1559a6" stroke-width="0.9"/>
<rect x="1296.8" y="317.5" width="2.1" height="43.9" fill="#2f80ed" opacity="0.38" stroke="#1559a6" stroke-width="0.9"/>
<rect x="1296.8" y="317.5" width="2.1" height="43.9" fill="#2f80ed" opacity="0.38" stroke="#1559a6" stroke-width="0.9"/>
<rect x="1318.1" y="317.5" width="2.1" height="43.9" fill="#2f80ed" opacity="0.38" stroke="#1559a6" stroke-width="0.9"/>
<rect x="1318.1" y="317.5" width="2.1" height="43.9" fill="#2f80ed" opacity="0.38" stroke="#1559a6" stroke-width="0.9"/>
<rect x="1356.2" y="306.5" width="116.7" height="219.4" fill="#2f80ed" opacity="0.38" stroke="#1559a6" stroke-width="0.9"/>
<rect x="1356.2" y="306.5" width="116.7" height="219.4" fill="#2f80ed" opacity="0.38" stroke="#1559a6" stroke-width="0.9"/>
<rect x="1360.5" y="317.5" width="2.1" height="43.9" fill="#2f80ed" opacity="0.38" stroke="#1559a6" stroke-width="0.9"/>
<rect x="1360.5" y="317.5" width="2.1" height="43.9" fill="#2f80ed" opacity="0.38" stroke="#1559a6" stroke-width="0.9"/>
<rect x="1381.7" y="317.5" width="2.1" height="43.9" fill="#2f80ed" opacity="0.38" stroke="#1559a6" stroke-width="0.9"/>
<rect x="1381.7" y="317.5" width="2.1" height="43.9" fill="#2f80ed" opacity="0.38" stroke="#1559a6" stroke-width="0.9"/>
<rect x="1402.9" y="317.5" width="2.1" height="43.9" fill="#2f80ed" opacity="0.38" stroke="#1559a6" stroke-width="0.9"/>
<rect x="1402.9" y="317.5" width="2.1" height="43.9" fill="#2f80ed" opacity="0.38" stroke="#1559a6" stroke-width="0.9"/>
<rect x="1424.2" y="317.5" width="2.1" height="43.9" fill="#2f80ed" opacity="0.38" stroke="#1559a6" stroke-width="0.9"/>
<rect x="1424.2" y="317.5" width="2.1" height="43.9" fill="#2f80ed" opacity="0.38" stroke="#1559a6" stroke-width="0.9"/>
<rect x="1445.4" y="317.5" width="2.1" height="43.9" fill="#2f80ed" opacity="0.38" stroke="#1559a6" stroke-width="0.9"/>
<rect x="1445.4" y="317.5" width="2.1" height="43.9" fill="#2f80ed" opacity="0.38" stroke="#1559a6" stroke-width="0.9"/>
<rect x="1466.6" y="317.5" width="2.1" height="43.9" fill="#2f80ed" opacity="0.38" stroke="#1559a6" stroke-width="0.9"/>
<rect x="1466.6" y="317.5" width="2.1" height="43.9" fill="#2f80ed" opacity="0.38" stroke="#1559a6" stroke-width="0.9"/>
<rect x="1485.7" y="547.8" width="50.9" height="131.6" fill="#c9c9bf" opacity="0.55" stroke="#85857d" stroke-width="0.9"/>
<rect x="1536.6" y="547.8" width="67.9" height="131.6" fill="#c9c9bf" opacity="0.55" stroke="#85857d" stroke-width="0.9"/>
<rect x="1024.4" y="297.7" width="150.2" height="236.9" fill="none" stroke="#d93025" stroke-width="2.0"/>
<rect x="1024.4" y="297.7" width="150.2" height="236.9" fill="none" stroke="#d93025" stroke-width="2.0"/>
<rect x="1039.2" y="308.7" width="3.8" height="61.4" fill="none" stroke="#d93025" stroke-width="2.0"/>
<rect x="1039.2" y="308.7" width="3.8" height="61.4" fill="none" stroke="#d93025" stroke-width="2.0"/>
<rect x="1060.4" y="308.7" width="3.8" height="61.4" fill="none" stroke="#d93025" stroke-width="2.0"/>
<rect x="1060.4" y="308.7" width="3.8" height="61.4" fill="none" stroke="#d93025" stroke-width="2.0"/>
<rect x="1081.7" y="308.7" width="3.8" height="61.4" fill="none" stroke="#d93025" stroke-width="2.0"/>
<rect x="1081.7" y="308.7" width="3.8" height="61.4" fill="none" stroke="#d93025" stroke-width="2.0"/>
<rect x="1102.9" y="308.7" width="3.8" height="61.4" fill="none" stroke="#d93025" stroke-width="2.0"/>
<rect x="1102.9" y="308.7" width="3.8" height="61.4" fill="none" stroke="#d93025" stroke-width="2.0"/>
<rect x="1124.1" y="308.7" width="3.8" height="61.4" fill="none" stroke="#d93025" stroke-width="2.0"/>
<rect x="1124.1" y="308.7" width="3.8" height="61.4" fill="none" stroke="#d93025" stroke-width="2.0"/>
<rect x="1145.3" y="308.7" width="3.8" height="61.4" fill="none" stroke="#d93025" stroke-width="2.0"/>
<rect x="1145.3" y="308.7" width="3.8" height="61.4" fill="none" stroke="#d93025" stroke-width="2.0"/>
<rect x="1166.5" y="308.7" width="3.8" height="61.4" fill="none" stroke="#d93025" stroke-width="2.0"/>
<rect x="1166.5" y="308.7" width="3.8" height="61.4" fill="none" stroke="#d93025" stroke-width="2.0"/>
<rect x="1206.9" y="297.7" width="118.4" height="236.9" fill="none" stroke="#d93025" stroke-width="2.0"/>
<rect x="1206.9" y="297.7" width="118.4" height="236.9" fill="none" stroke="#d93025" stroke-width="2.0"/>
<rect x="1211.1" y="308.7" width="3.8" height="61.4" fill="none" stroke="#d93025" stroke-width="2.0"/>
<rect x="1211.1" y="308.7" width="3.8" height="61.4" fill="none" stroke="#d93025" stroke-width="2.0"/>
<rect x="1232.3" y="308.7" width="3.8" height="61.4" fill="none" stroke="#d93025" stroke-width="2.0"/>
<rect x="1232.3" y="308.7" width="3.8" height="61.4" fill="none" stroke="#d93025" stroke-width="2.0"/>
<rect x="1253.5" y="308.7" width="3.8" height="61.4" fill="none" stroke="#d93025" stroke-width="2.0"/>
<rect x="1253.5" y="308.7" width="3.8" height="61.4" fill="none" stroke="#d93025" stroke-width="2.0"/>
<rect x="1274.8" y="308.7" width="3.8" height="61.4" fill="none" stroke="#d93025" stroke-width="2.0"/>
<rect x="1274.8" y="308.7" width="3.8" height="61.4" fill="none" stroke="#d93025" stroke-width="2.0"/>
<rect x="1296.0" y="308.7" width="3.8" height="61.4" fill="none" stroke="#d93025" stroke-width="2.0"/>
<rect x="1296.0" y="308.7" width="3.8" height="61.4" fill="none" stroke="#d93025" stroke-width="2.0"/>
<rect x="1317.2" y="308.7" width="3.8" height="61.4" fill="none" stroke="#d93025" stroke-width="2.0"/>
<rect x="1317.2" y="308.7" width="3.8" height="61.4" fill="none" stroke="#d93025" stroke-width="2.0"/>
<rect x="1355.4" y="297.7" width="118.4" height="236.9" fill="none" stroke="#d93025" stroke-width="2.0"/>
<rect x="1355.4" y="297.7" width="118.4" height="236.9" fill="none" stroke="#d93025" stroke-width="2.0"/>
<rect x="1359.6" y="308.7" width="3.8" height="61.4" fill="none" stroke="#d93025" stroke-width="2.0"/>
<rect x="1359.6" y="308.7" width="3.8" height="61.4" fill="none" stroke="#d93025" stroke-width="2.0"/>
<rect x="1380.9" y="308.7" width="3.8" height="61.4" fill="none" stroke="#d93025" stroke-width="2.0"/>
<rect x="1380.9" y="308.7" width="3.8" height="61.4" fill="none" stroke="#d93025" stroke-width="2.0"/>
<rect x="1402.1" y="308.7" width="3.8" height="61.4" fill="none" stroke="#d93025" stroke-width="2.0"/>
<rect x="1402.1" y="308.7" width="3.8" height="61.4" fill="none" stroke="#d93025" stroke-width="2.0"/>
<rect x="1423.3" y="308.7" width="3.8" height="61.4" fill="none" stroke="#d93025" stroke-width="2.0"/>
<rect x="1423.3" y="308.7" width="3.8" height="61.4" fill="none" stroke="#d93025" stroke-width="2.0"/>
<rect x="1444.5" y="308.7" width="3.8" height="61.4" fill="none" stroke="#d93025" stroke-width="2.0"/>
<rect x="1444.5" y="308.7" width="3.8" height="61.4" fill="none" stroke="#d93025" stroke-width="2.0"/>
<rect x="1465.8" y="308.7" width="3.8" height="61.4" fill="none" stroke="#d93025" stroke-width="2.0"/>
<rect x="1465.8" y="308.7" width="3.8" height="61.4" fill="none" stroke="#d93025" stroke-width="2.0"/>
<text x="244.9" y="576.6" font-size="11" font-family="Arial" fill="#222">dxf_80C_35x4</text>
<text x="1075.5" y="408.2" font-size="11" font-family="Arial" fill="#222">dxf_80C_35x4</text>
<text x="244.9" y="607.4" font-size="11" font-family="Arial" fill="#222">dxf_814_35x4</text>
<text x="1075.5" y="408.2" font-size="11" font-family="Arial" fill="#222">dxf_814_35x4</text>
<text x="401.0" y="576.6" font-size="11" font-family="Arial" fill="#222">dxf_685_27_5x4</text>
<text x="1242.1" y="408.2" font-size="11" font-family="Arial" fill="#222">dxf_685_27_5x4</text>
<text x="401.0" y="607.4" font-size="11" font-family="Arial" fill="#222">dxf_6C1_27_5x4</text>
<text x="1242.1" y="408.2" font-size="11" font-family="Arial" fill="#222">dxf_6C1_27_5x4</text>
<text x="540.2" y="576.6" font-size="11" font-family="Arial" fill="#222">dxf_681_27_5x4</text>
<text x="1390.6" y="408.2" font-size="11" font-family="Arial" fill="#222">dxf_681_27_5x4</text>
<text x="540.2" y="607.4" font-size="11" font-family="Arial" fill="#222">dxf_6BD_27_5x4</text>
<text x="1390.6" y="408.2" font-size="11" font-family="Arial" fill="#222">dxf_6BD_27_5x4</text>
<rect x="54" y="878" width="1606" height="96" fill="white" stroke="#ccc"/>
<rect x="84" y="898" width="34" height="14" fill="#2f80ed" opacity="0.45" stroke="#1559a6"/>
<text x="128" y="910" font-size="14" font-family="Arial, Microsoft YaHei" fill="#333">运动机关本体</text>
<rect x="260" y="898" width="34" height="14" fill="none" stroke="#d93025" stroke-width="2"/>
<text x="304" y="910" font-size="14" font-family="Arial, Microsoft YaHei" fill="#333">死亡触发区红色轮廓，局部 (0,0,0) 后落在本体中心</text>
<rect x="690" y="898" width="34" height="14" fill="#c9c9bf" opacity="0.68" stroke="#85857d"/>
<text x="734" y="910" font-size="14" font-family="Arial, Microsoft YaHei" fill="#333">静态结构</text>
<rect x="860" y="898" width="34" height="14" fill="#555" opacity="0.32" stroke="#444"/>
<text x="904" y="910" font-size="14" font-family="Arial, Microsoft YaHei" fill="#333">固定高墙</text>
<text x="84" y="948" font-size="14" font-family="Arial, Microsoft YaHei" fill="#555">这张图只展示“正确落回结构内”的红色触发区轮廓；没有画当前错误偏移。侧视图里可以看到长板在 Y=8，细杆在 Y=9.75，触发区按对应高度覆盖。</text>
</svg>