<svg xmlns="http://www.w3.org/2000/svg" width="1500" height="850" viewBox="0 0 1500 850">
<rect width="100%" height="100%" fill="#f8f8f4"/>
<text x="70" y="36" font-size="24" font-family="Arial" fill="#222">第8关机关死亡触发区侧视图：子组件局部位置回到 (0,0,0)</text>
<text x="70" y="62" font-size="14" font-family="Arial" fill="#555">横轴=X，纵轴=Y。蓝色=机关本体；绿色=局部0后的触发区应覆盖本体；红色虚线=当前错误叠加后的推断位置。</text>
<line x1="70.0" y1="80" x2="70.0" y2="770" stroke="#e0e0e0"/>
<line x1="70" y1="80.0" x2="1430" y2="80.0" stroke="#e0e0e0"/>
<line x1="206.0" y1="80" x2="206.0" y2="770" stroke="#e0e0e0"/>
<line x1="70" y1="149.0" x2="1430" y2="149.0" stroke="#e0e0e0"/>
<line x1="342.0" y1="80" x2="342.0" y2="770" stroke="#e0e0e0"/>
<line x1="70" y1="218.0" x2="1430" y2="218.0" stroke="#e0e0e0"/>
<line x1="478.0" y1="80" x2="478.0" y2="770" stroke="#e0e0e0"/>
<line x1="70" y1="287.0" x2="1430" y2="287.0" stroke="#e0e0e0"/>
<line x1="614.0" y1="80" x2="614.0" y2="770" stroke="#e0e0e0"/>
<line x1="70" y1="356.0" x2="1430" y2="356.0" stroke="#e0e0e0"/>
<line x1="750.0" y1="80" x2="750.0" y2="770" stroke="#e0e0e0"/>
<line x1="70" y1="425.0" x2="1430" y2="425.0" stroke="#e0e0e0"/>
<line x1="886.0" y1="80" x2="886.0" y2="770" stroke="#e0e0e0"/>
<line x1="70" y1="494.0" x2="1430" y2="494.0" stroke="#e0e0e0"/>
<line x1="1022.0" y1="80" x2="1022.0" y2="770" stroke="#e0e0e0"/>
<line x1="70" y1="563.0" x2="1430" y2="563.0" stroke="#e0e0e0"/>
<line x1="1158.0" y1="80" x2="1158.0" y2="770" stroke="#e0e0e0"/>
<line x1="70" y1="632.0" x2="1430" y2="632.0" stroke="#e0e0e0"/>
<line x1="1294.0" y1="80" x2="1294.0" y2="770" stroke="#e0e0e0"/>
<line x1="70" y1="701.0" x2="1430" y2="701.0" stroke="#e0e0e0"/>
<line x1="1430.0" y1="80" x2="1430.0" y2="770" stroke="#e0e0e0"/>
<line x1="70" y1="770.0" x2="1430" y2="770.0" stroke="#e0e0e0"/>
<rect x="116.6" y="245.7" width="90.5" height="162.7" fill="none" stroke="#d93025" stroke-width="1.8" stroke-dasharray="5 4" opacity="0.65"/>
<rect x="116.6" y="245.7" width="90.5" height="162.7" fill="none" stroke="#d93025" stroke-width="1.8" stroke-dasharray="5 4" opacity="0.65"/>
<rect x="90.4" y="200.5" width="2.3" height="42.2" fill="none" stroke="#d93025" stroke-width="1.8" stroke-dasharray="5 4" opacity="0.65"/>
<rect x="90.4" y="200.5" width="2.3" height="42.2" fill="none" stroke="#d93025" stroke-width="1.8" stroke-dasharray="5 4" opacity="0.65"/>
<rect x="116.0" y="200.5" width="2.3" height="42.2" fill="none" stroke="#d93025" stroke-width="1.8" stroke-dasharray="5 4" opacity="0.65"/>
<rect x="116.0" y="200.5" width="2.3" height="42.2" fill="none" stroke="#d93025" stroke-width="1.8" stroke-dasharray="5 4" opacity="0.65"/>
<rect x="141.6" y="200.5" width="2.3" height="42.2" fill="none" stroke="#d93025" stroke-width="1.8" stroke-dasharray="5 4" opacity="0.65"/>
<rect x="141.6" y="200.5" width="2.3" height="42.2" fill="none" stroke="#d93025" stroke-width="1.8" stroke-dasharray="5 4" opacity="0.65"/>
<rect x="167.1" y="200.5" width="2.3" height="42.2" fill="none" stroke="#d93025" stroke-width="1.8" stroke-dasharray="5 4" opacity="0.65"/>
<rect x="167.1" y="200.5" width="2.3" height="42.2" fill="none" stroke="#d93025" stroke-width="1.8" stroke-dasharray="5 4" opacity="0.65"/>
<rect x="192.7" y="200.5" width="2.3" height="42.2" fill="none" stroke="#d93025" stroke-width="1.8" stroke-dasharray="5 4" opacity="0.65"/>
<rect x="192.7" y="200.5" width="2.3" height="42.2" fill="none" stroke="#d93025" stroke-width="1.8" stroke-dasharray="5 4" opacity="0.65"/>
<rect x="218.2" y="200.5" width="2.3" height="42.2" fill="none" stroke="#d93025" stroke-width="1.8" stroke-dasharray="5 4" opacity="0.65"/>
<rect x="218.2" y="200.5" width="2.3" height="42.2" fill="none" stroke="#d93025" stroke-width="1.8" stroke-dasharray="5 4" opacity="0.65"/>
<rect x="243.8" y="200.5" width="2.3" height="42.2" fill="none" stroke="#d93025" stroke-width="1.8" stroke-dasharray="5 4" opacity="0.65"/>
<rect x="243.8" y="200.5" width="2.3" height="42.2" fill="none" stroke="#d93025" stroke-width="1.8" stroke-dasharray="5 4" opacity="0.65"/>
<rect x="326.8" y="245.7" width="71.3" height="162.7" fill="none" stroke="#d93025" stroke-width="1.8" stroke-dasharray="5 4" opacity="0.65"/>
<rect x="326.8" y="245.7" width="71.3" height="162.7" fill="none" stroke="#d93025" stroke-width="1.8" stroke-dasharray="5 4" opacity="0.65"/>
<rect x="297.5" y="200.5" width="2.3" height="42.2" fill="none" stroke="#d93025" stroke-width="1.8" stroke-dasharray="5 4" opacity="0.65"/>
<rect x="297.5" y="200.5" width="2.3" height="42.2" fill="none" stroke="#d93025" stroke-width="1.8" stroke-dasharray="5 4" opacity="0.65"/>
<rect x="323.0" y="200.5" width="2.3" height="42.2" fill="none" stroke="#d93025" stroke-width="1.8" stroke-dasharray="5 4" opacity="0.65"/>
<rect x="323.0" y="200.5" width="2.3" height="42.2" fill="none" stroke="#d93025" stroke-width="1.8" stroke-dasharray="5 4" opacity="0.65"/>
<rect x="348.6" y="200.5" width="2.3" height="42.2" fill="none" stroke="#d93025" stroke-width="1.8" stroke-dasharray="5 4" opacity="0.65"/>
<rect x="348.6" y="200.5" width="2.3" height="42.2" fill="none" stroke="#d93025" stroke-width="1.8" stroke-dasharray="5 4" opacity="0.65"/>
<rect x="374.1" y="200.5" width="2.3" height="42.2" fill="none" stroke="#d93025" stroke-width="1.8" stroke-dasharray="5 4" opacity="0.65"/>
<rect x="374.1" y="200.5" width="2.3" height="42.2" fill="none" stroke="#d93025" stroke-width="1.8" stroke-dasharray="5 4" opacity="0.65"/>
<rect x="399.7" y="200.5" width="2.3" height="42.2" fill="none" stroke="#d93025" stroke-width="1.8" stroke-dasharray="5 4" opacity="0.65"/>
<rect x="399.7" y="200.5" width="2.3" height="42.2" fill="none" stroke="#d93025" stroke-width="1.8" stroke-dasharray="5 4" opacity="0.65"/>
<rect x="425.2" y="200.5" width="2.3" height="42.2" fill="none" stroke="#d93025" stroke-width="1.8" stroke-dasharray="5 4" opacity="0.65"/>
<rect x="425.2" y="200.5" width="2.3" height="42.2" fill="none" stroke="#d93025" stroke-width="1.8" stroke-dasharray="5 4" opacity="0.65"/>
<rect x="505.7" y="245.7" width="71.3" height="162.7" fill="none" stroke="#d93025" stroke-width="1.8" stroke-dasharray="5 4" opacity="0.65"/>
<rect x="505.7" y="245.7" width="71.3" height="162.7" fill="none" stroke="#d93025" stroke-width="1.8" stroke-dasharray="5 4" opacity="0.65"/>
<rect x="476.4" y="200.5" width="2.3" height="42.2" fill="none" stroke="#d93025" stroke-width="1.8" stroke-dasharray="5 4" opacity="0.65"/>
<rect x="476.4" y="200.5" width="2.3" height="42.2" fill="none" stroke="#d93025" stroke-width="1.8" stroke-dasharray="5 4" opacity="0.65"/>
<rect x="501.9" y="200.5" width="2.3" height="42.2" fill="none" stroke="#d93025" stroke-width="1.8" stroke-dasharray="5 4" opacity="0.65"/>
<rect x="501.9" y="200.5" width="2.3" height="42.2" fill="none" stroke="#d93025" stroke-width="1.8" stroke-dasharray="5 4" opacity="0.65"/>
<rect x="527.5" y="200.5" width="2.3" height="42.2" fill="none" stroke="#d93025" stroke-width="1.8" stroke-dasharray="5 4" opacity="0.65"/>
<rect x="527.5" y="200.5" width="2.3" height="42.2" fill="none" stroke="#d93025" stroke-width="1.8" stroke-dasharray="5 4" opacity="0.65"/>
<rect x="553.0" y="200.5" width="2.3" height="42.2" fill="none" stroke="#d93025" stroke-width="1.8" stroke-dasharray="5 4" opacity="0.65"/>
<rect x="553.0" y="200.5" width="2.3" height="42.2" fill="none" stroke="#d93025" stroke-width="1.8" stroke-dasharray="5 4" opacity="0.65"/>
<rect x="578.6" y="200.5" width="2.3" height="42.2" fill="none" stroke="#d93025" stroke-width="1.8" stroke-dasharray="5 4" opacity="0.65"/>
<rect x="578.6" y="200.5" width="2.3" height="42.2" fill="none" stroke="#d93025" stroke-width="1.8" stroke-dasharray="5 4" opacity="0.65"/>
<rect x="604.1" y="200.5" width="2.3" height="42.2" fill="none" stroke="#d93025" stroke-width="1.8" stroke-dasharray="5 4" opacity="0.65"/>
<rect x="604.1" y="200.5" width="2.3" height="42.2" fill="none" stroke="#d93025" stroke-width="1.8" stroke-dasharray="5 4" opacity="0.65"/>
<rect x="1139.4" y="492.8" width="89.4" height="150.7" fill="#2f80ed" opacity="0.38" stroke="#1559a6" stroke-width="1"/>
<rect x="1138.9" y="486.8" width="90.5" height="162.7" fill="none" stroke="#188038" stroke-width="2" opacity="0.95"/>
<rect x="1139.4" y="492.8" width="89.4" height="150.7" fill="#2f80ed" opacity="0.38" stroke="#1559a6" stroke-width="1"/>
<rect x="1138.9" y="486.8" width="90.5" height="162.7" fill="none" stroke="#188038" stroke-width="2" opacity="0.95"/>
<rect x="1148.4" y="500.3" width="1.3" height="30.1" fill="#2f80ed" opacity="0.38" stroke="#1559a6" stroke-width="1"/>
<rect x="1147.9" y="494.3" width="2.3" height="42.2" fill="none" stroke="#188038" stroke-width="2" opacity="0.95"/>
<rect x="1148.4" y="500.3" width="1.3" height="30.1" fill="#2f80ed" opacity="0.38" stroke="#1559a6" stroke-width="1"/>
<rect x="1147.9" y="494.3" width="2.3" height="42.2" fill="none" stroke="#188038" stroke-width="2" opacity="0.95"/>
<rect x="1161.1" y="500.3" width="1.3" height="30.1" fill="#2f80ed" opacity="0.38" stroke="#1559a6" stroke-width="1"/>
<rect x="1160.6" y="494.3" width="2.3" height="42.2" fill="none" stroke="#188038" stroke-width="2" opacity="0.95"/>
<rect x="1161.1" y="500.3" width="1.3" height="30.1" fill="#2f80ed" opacity="0.38" stroke="#1559a6" stroke-width="1"/>
<rect x="1160.6" y="494.3" width="2.3" height="42.2" fill="none" stroke="#188038" stroke-width="2" opacity="0.95"/>
<rect x="1173.9" y="500.3" width="1.3" height="30.1" fill="#2f80ed" opacity="0.38" stroke="#1559a6" stroke-width="1"/>
<rect x="1173.4" y="494.3" width="2.3" height="42.2" fill="none" stroke="#188038" stroke-width="2" opacity="0.95"/>
<rect x="1173.9" y="500.3" width="1.3" height="30.1" fill="#2f80ed" opacity="0.38" stroke="#1559a6" stroke-width="1"/>
<rect x="1173.4" y="494.3" width="2.3" height="42.2" fill="none" stroke="#188038" stroke-width="2" opacity="0.95"/>
<rect x="1186.7" y="500.3" width="1.3" height="30.1" fill="#2f80ed" opacity="0.38" stroke="#1559a6" stroke-width="1"/>
<rect x="1186.2" y="494.3" width="2.3" height="42.2" fill="none" stroke="#188038" stroke-width="2" opacity="0.95"/>
<rect x="1186.7" y="500.3" width="1.3" height="30.1" fill="#2f80ed" opacity="0.38" stroke="#1559a6" stroke-width="1"/>
<rect x="1186.2" y="494.3" width="2.3" height="42.2" fill="none" stroke="#188038" stroke-width="2" opacity="0.95"/>
<rect x="1199.5" y="500.3" width="1.3" height="30.1" fill="#2f80ed" opacity="0.38" stroke="#1559a6" stroke-width="1"/>
<rect x="1199.0" y="494.3" width="2.3" height="42.2" fill="none" stroke="#188038" stroke-width="2" opacity="0.95"/>
<rect x="1199.5" y="500.3" width="1.3" height="30.1" fill="#2f80ed" opacity="0.38" stroke="#1559a6" stroke-width="1"/>
<rect x="1199.0" y="494.3" width="2.3" height="42.2" fill="none" stroke="#188038" stroke-width="2" opacity="0.95"/>
<rect x="1212.3" y="500.3" width="1.3" height="30.1" fill="#2f80ed" opacity="0.38" stroke="#1559a6" stroke-width="1"/>
<rect x="1211.7" y="494.3" width="2.3" height="42.2" fill="none" stroke="#188038" stroke-width="2" opacity="0.95"/>
<rect x="1212.3" y="500.3" width="1.3" height="30.1" fill="#2f80ed" opacity="0.38" stroke="#1559a6" stroke-width="1"/>
<rect x="1211.7" y="494.3" width="2.3" height="42.2" fill="none" stroke="#188038" stroke-width="2" opacity="0.95"/>
<rect x="1225.0" y="500.3" width="1.3" height="30.1" fill="#2f80ed" opacity="0.38" stroke="#1559a6" stroke-width="1"/>
<rect x="1224.5" y="494.3" width="2.3" height="42.2" fill="none" stroke="#188038" stroke-width="2" opacity="0.95"/>
<rect x="1225.0" y="500.3" width="1.3" height="30.1" fill="#2f80ed" opacity="0.38" stroke="#1559a6" stroke-width="1"/>
<rect x="1224.5" y="494.3" width="2.3" height="42.2" fill="none" stroke="#188038" stroke-width="2" opacity="0.95"/>
<rect x="1249.3" y="492.8" width="70.3" height="150.7" fill="#2f80ed" opacity="0.38" stroke="#1559a6" stroke-width="1"/>
<rect x="1248.8" y="486.8" width="71.3" height="162.7" fill="none" stroke="#188038" stroke-width="2" opacity="0.95"/>
<rect x="1249.3" y="492.8" width="70.3" height="150.7" fill="#2f80ed" opacity="0.38" stroke="#1559a6" stroke-width="1"/>
<rect x="1248.8" y="486.8" width="71.3" height="162.7" fill="none" stroke="#188038" stroke-width="2" opacity="0.95"/>
<rect x="1251.9" y="500.3" width="1.3" height="30.1" fill="#2f80ed" opacity="0.38" stroke="#1559a6" stroke-width="1"/>
<rect x="1251.4" y="494.3" width="2.3" height="42.2" fill="none" stroke="#188038" stroke-width="2" opacity="0.95"/>
<rect x="1251.9" y="500.3" width="1.3" height="30.1" fill="#2f80ed" opacity="0.38" stroke="#1559a6" stroke-width="1"/>
<rect x="1251.4" y="494.3" width="2.3" height="42.2" fill="none" stroke="#188038" stroke-width="2" opacity="0.95"/>
<rect x="1264.6" y="500.3" width="1.3" height="30.1" fill="#2f80ed" opacity="0.38" stroke="#1559a6" stroke-width="1"/>
<rect x="1264.1" y="494.3" width="2.3" height="42.2" fill="none" stroke="#188038" stroke-width="2" opacity="0.95"/>
<rect x="1264.6" y="500.3" width="1.3" height="30.1" fill="#2f80ed" opacity="0.38" stroke="#1559a6" stroke-width="1"/>
<rect x="1264.1" y="494.3" width="2.3" height="42.2" fill="none" stroke="#188038" stroke-width="2" opacity="0.95"/>
<rect x="1277.4" y="500.3" width="1.3" height="30.1" fill="#2f80ed" opacity="0.38" stroke="#1559a6" stroke-width="1"/>
<rect x="1276.9" y="494.3" width="2.3" height="42.2" fill="none" stroke="#188038" stroke-width="2" opacity="0.95"/>
<rect x="1277.4" y="500.3" width="1.3" height="30.1" fill="#2f80ed" opacity="0.38" stroke="#1559a6" stroke-width="1"/>
<rect x="1276.9" y="494.3" width="2.3" height="42.2" fill="none" stroke="#188038" stroke-width="2" opacity="0.95"/>
<rect x="1290.2" y="500.3" width="1.3" height="30.1" fill="#2f80ed" opacity="0.38" stroke="#1559a6" stroke-width="1"/>
<rect x="1289.7" y="494.3" width="2.3" height="42.2" fill="none" stroke="#188038" stroke-width="2" opacity="0.95"/>
<rect x="1290.2" y="500.3" width="1.3" height="30.1" fill="#2f80ed" opacity="0.38" stroke="#1559a6" stroke-width="1"/>
<rect x="1289.7" y="494.3" width="2.3" height="42.2" fill="none" stroke="#188038" stroke-width="2" opacity="0.95"/>
<rect x="1303.0" y="500.3" width="1.3" height="30.1" fill="#2f80ed" opacity="0.38" stroke="#1559a6" stroke-width="1"/>
<rect x="1302.5" y="494.3" width="2.3" height="42.2" fill="none" stroke="#188038" stroke-width="2" opacity="0.95"/>
<rect x="1303.0" y="500.3" width="1.3" height="30.1" fill="#2f80ed" opacity="0.38" stroke="#1559a6" stroke-width="1"/>
<rect x="1302.5" y="494.3" width="2.3" height="42.2" fill="none" stroke="#188038" stroke-width="2" opacity="0.95"/>
<rect x="1315.8" y="500.3" width="1.3" height="30.1" fill="#2f80ed" opacity="0.38" stroke="#1559a6" stroke-width="1"/>
<rect x="1315.3" y="494.3" width="2.3" height="42.2" fill="none" stroke="#188038" stroke-width="2" opacity="0.95"/>
<rect x="1315.8" y="500.3" width="1.3" height="30.1" fill="#2f80ed" opacity="0.38" stroke="#1559a6" stroke-width="1"/>
<rect x="1315.3" y="494.3" width="2.3" height="42.2" fill="none" stroke="#188038" stroke-width="2" opacity="0.95"/>
<rect x="1338.8" y="492.8" width="70.3" height="150.7" fill="#2f80ed" opacity="0.38" stroke="#1559a6" stroke-width="1"/>
<rect x="1338.3" y="486.8" width="71.3" height="162.7" fill="none" stroke="#188038" stroke-width="2" opacity="0.95"/>
<rect x="1338.8" y="492.8" width="70.3" height="150.7" fill="#2f80ed" opacity="0.38" stroke="#1559a6" stroke-width="1"/>
<rect x="1338.3" y="486.8" width="71.3" height="162.7" fill="none" stroke="#188038" stroke-width="2" opacity="0.95"/>
<rect x="1341.3" y="500.3" width="1.3" height="30.1" fill="#2f80ed" opacity="0.38" stroke="#1559a6" stroke-width="1"/>
<rect x="1340.8" y="494.3" width="2.3" height="42.2" fill="none" stroke="#188038" stroke-width="2" opacity="0.95"/>
<rect x="1341.3" y="500.3" width="1.3" height="30.1" fill="#2f80ed" opacity="0.38" stroke="#1559a6" stroke-width="1"/>
<rect x="1340.8" y="494.3" width="2.3" height="42.2" fill="none" stroke="#188038" stroke-width="2" opacity="0.95"/>
<rect x="1354.1" y="500.3" width="1.3" height="30.1" fill="#2f80ed" opacity="0.38" stroke="#1559a6" stroke-width="1"/>
<rect x="1353.6" y="494.3" width="2.3" height="42.2" fill="none" stroke="#188038" stroke-width="2" opacity="0.95"/>
<rect x="1354.1" y="500.3" width="1.3" height="30.1" fill="#2f80ed" opacity="0.38" stroke="#1559a6" stroke-width="1"/>
<rect x="1353.6" y="494.3" width="2.3" height="42.2" fill="none" stroke="#188038" stroke-width="2" opacity="0.95"/>
<rect x="1366.9" y="500.3" width="1.3" height="30.1" fill="#2f80ed" opacity="0.38" stroke="#1559a6" stroke-width="1"/>
<rect x="1366.4" y="494.3" width="2.3" height="42.2" fill="none" stroke="#188038" stroke-width="2" opacity="0.95"/>
<rect x="1366.9" y="500.3" width="1.3" height="30.1" fill="#2f80ed" opacity="0.38" stroke="#1559a6" stroke-width="1"/>
<rect x="1366.4" y="494.3" width="2.3" height="42.2" fill="none" stroke="#188038" stroke-width="2" opacity="0.95"/>
<rect x="1379.7" y="500.3" width="1.3" height="30.1" fill="#2f80ed" opacity="0.38" stroke="#1559a6" stroke-width="1"/>
<rect x="1379.1" y="494.3" width="2.3" height="42.2" fill="none" stroke="#188038" stroke-width="2" opacity="0.95"/>
<rect x="1379.7" y="500.3" width="1.3" height="30.1" fill="#2f80ed" opacity="0.38" stroke="#1559a6" stroke-width="1"/>
<rect x="1379.1" y="494.3" width="2.3" height="42.2" fill="none" stroke="#188038" stroke-width="2" opacity="0.95"/>
<rect x="1392.4" y="500.3" width="1.3" height="30.1" fill="#2f80ed" opacity="0.38" stroke="#1559a6" stroke-width="1"/>
<rect x="1391.9" y="494.3" width="2.3" height="42.2" fill="none" stroke="#188038" stroke-width="2" opacity="0.95"/>
<rect x="1392.4" y="500.3" width="1.3" height="30.1" fill="#2f80ed" opacity="0.38" stroke="#1559a6" stroke-width="1"/>
<rect x="1391.9" y="494.3" width="2.3" height="42.2" fill="none" stroke="#188038" stroke-width="2" opacity="0.95"/>
<rect x="1405.2" y="500.3" width="1.3" height="30.1" fill="#2f80ed" opacity="0.38" stroke="#1559a6" stroke-width="1"/>
<rect x="1404.7" y="494.3" width="2.3" height="42.2" fill="none" stroke="#188038" stroke-width="2" opacity="0.95"/>
<rect x="1405.2" y="500.3" width="1.3" height="30.1" fill="#2f80ed" opacity="0.38" stroke="#1559a6" stroke-width="1"/>
<rect x="1404.7" y="494.3" width="2.3" height="42.2" fill="none" stroke="#188038" stroke-width="2" opacity="0.95"/>
<text x="1188.1" y="561.1" font-size="10" font-family="Arial" fill="#222">dxf_80C_35x4</text>
<text x="1188.1" y="561.1" font-size="10" font-family="Arial" fill="#222">dxf_814_35x4</text>
<text x="1153.0" y="508.4" font-size="10" font-family="Arial" fill="#222">dxf_840_0_5x4</text>
<text x="1153.0" y="508.4" font-size="10" font-family="Arial" fill="#222">dxf_844_0_5x4</text>
<text x="1165.8" y="508.4" font-size="10" font-family="Arial" fill="#222">dxf_828_0_5x4</text>
<text x="1165.8" y="508.4" font-size="10" font-family="Arial" fill="#222">dxf_83C_0_5x4</text>
<text x="1178.6" y="508.4" font-size="10" font-family="Arial" fill="#222">dxf_824_0_5x4</text>
<text x="1178.6" y="508.4" font-size="10" font-family="Arial" fill="#222">dxf_838_0_5x4</text>
<text x="1191.3" y="508.4" font-size="10" font-family="Arial" fill="#222">dxf_820_0_5x4</text>
<text x="1191.3" y="508.4" font-size="10" font-family="Arial" fill="#222">dxf_834_0_5x4</text>
<rect x="1060" y="92" width="370" height="92" fill="white" stroke="#ccc"/>
<rect x="1080" y="112" width="34" height="12" fill="#2f80ed" opacity="0.38" stroke="#1559a6"/>
<text x="1124" y="123" font-size="13" font-family="Arial" fill="#333">机关本体</text>
<rect x="1080" y="136" width="34" height="12" fill="none" stroke="#188038" stroke-width="2"/>
<text x="1124" y="147" font-size="13" font-family="Arial" fill="#333">局部 (0,0,0) 后的死亡触发区</text>
<rect x="1080" y="160" width="34" height="12" fill="none" stroke="#d93025" stroke-width="2" stroke-dasharray="5 4"/>
<text x="1124" y="171" font-size="13" font-family="Arial" fill="#333">当前错误叠加后的推断位置</text>
<text x="70" y="815" font-size="13" font-family="Arial" fill="#555">结论：局部位置归零后，绿色框会回到每块蓝色本体中心；Y高度跟随本体，触发区只比本体略高/略厚。</text>
</svg>