<svg xmlns="http://www.w3.org/2000/svg" width="980" height="720" viewBox="0 0 980 720">
  <defs>
    <style>
      .page { fill: #f7f8fb; }
      .title { font: 700 24px Arial, "Noto Sans SC", sans-serif; fill: #172033; }
      .subtitle { font: 14px Arial, "Noto Sans SC", sans-serif; fill: #5a6475; }
      .axis { font: 12px Arial, "Noto Sans SC", sans-serif; fill: #697386; }
      .frame { fill: #ffffff; stroke: #253044; stroke-width: 2; }
      .grid { stroke: #d8dee9; stroke-width: 1; }
      .tile { fill: #0066ff; fill-opacity: 0.72; stroke: #063f99; stroke-width: 2; }
      .trigger { fill: none; stroke: #ff2a2a; stroke-width: 2.2; stroke-dasharray: 8 5; }
      .num { font: 700 15px Arial, "Noto Sans SC", sans-serif; fill: #ffffff; }
      .num-bg { fill: #102a63; }
      .label { font: 12px Arial, "Noto Sans Mono", monospace; fill: #10213a; }
      .small { font: 11px Arial, "Noto Sans SC", sans-serif; fill: #4d596a; }
      .legend-box { fill: #ffffff; stroke: #d1d7e2; stroke-width: 1; }
    </style>
  </defs>

  <rect class="page" x="0" y="0" width="980" height="720"/>
  <text class="title" x="40" y="42">第 03 关 12 块渐隐地砖 SVG 图</text>
  <text class="subtitle" x="40" y="66">蓝色矩形为地砖本体；红色虚线框为对应 QR_第03关_xxx_渐隐触发区。比例：1 单位 = 5 px。</text>

  <g id="level-03-vanishing-tiles" transform="translate(60 105)">
    <rect class="frame" x="0" y="0" width="800" height="500"/>

    <g id="grid">
      <line class="grid" x1="100" y1="0" x2="100" y2="500"/>
      <line class="grid" x1="200" y1="0" x2="200" y2="500"/>
      <line class="grid" x1="300" y1="0" x2="300" y2="500"/>
      <line class="grid" x1="400" y1="0" x2="400" y2="500"/>
      <line class="grid" x1="500" y1="0" x2="500" y2="500"/>
      <line class="grid" x1="600" y1="0" x2="600" y2="500"/>
      <line class="grid" x1="700" y1="0" x2="700" y2="500"/>
      <line class="grid" x1="0" y1="100" x2="800" y2="100"/>
      <line class="grid" x1="0" y1="200" x2="800" y2="200"/>
      <line class="grid" x1="0" y1="300" x2="800" y2="300"/>
      <line class="grid" x1="0" y1="400" x2="800" y2="400"/>
    </g>

    <text class="axis" x="0" y="-12">x=0</text>
    <text class="axis" x="760" y="-12">x=160</text>
    <text class="axis" x="-42" y="8">z=0</text>
    <text class="axis" x="-48" y="500">z=100</text>

    <g id="tiles">
      <g id="tile-2-dxf-840">
        <rect class="tile" x="140" y="31.25" width="120" height="85.9375"/>
        <rect class="trigger" x="140" y="31.25" width="120" height="85.9375"/>
        <circle class="num-bg" cx="160" cy="53" r="15"/><text class="num" x="155" y="59">2</text>
        <text class="label" x="174" y="74">dxf_840</text>
        <text class="small" x="174" y="90">QR_第03关_dxf_840_24x17_1875</text>
      </g>

      <g id="tile-3-dxf-85C">
        <rect class="tile" x="140" y="148.4375" width="120" height="85.9375"/>
        <rect class="trigger" x="140" y="148.4375" width="120" height="85.9375"/>
        <circle class="num-bg" cx="160" cy="170" r="15"/><text class="num" x="155" y="176">3</text>
        <text class="label" x="174" y="191">dxf_85C</text>
        <text class="small" x="174" y="207">QR_第03关_dxf_85C_24x17_1875</text>
      </g>

      <g id="tile-4-dxf-860">
        <rect class="tile" x="140" y="265.625" width="120" height="85.9375"/>
        <rect class="trigger" x="140" y="265.625" width="120" height="85.9375"/>
        <circle class="num-bg" cx="160" cy="287" r="15"/><text class="num" x="155" y="293">4</text>
        <text class="label" x="174" y="308">dxf_860</text>
        <text class="small" x="174" y="324">QR_第03关_dxf_860_24x17_1875</text>
      </g>

      <g id="tile-5-dxf-864">
        <rect class="tile" x="140" y="382.8125" width="120" height="85.9375"/>
        <rect class="trigger" x="140" y="382.8125" width="120" height="85.9375"/>
        <circle class="num-bg" cx="160" cy="405" r="15"/><text class="num" x="155" y="411">5</text>
        <text class="label" x="174" y="426">dxf_864</text>
        <text class="small" x="174" y="442">QR_第03关_dxf_864_24x17_1875</text>
      </g>

      <g id="tile-6-dxf-844">
        <rect class="tile" x="300" y="31.25" width="120" height="85.9375"/>
        <rect class="trigger" x="300" y="31.25" width="120" height="85.9375"/>
        <circle class="num-bg" cx="320" cy="53" r="15"/><text class="num" x="315" y="59">6</text>
        <text class="label" x="334" y="74">dxf_844</text>
        <text class="small" x="334" y="90">QR_第03关_dxf_844_24x17_1875</text>
      </g>

      <g id="tile-7-dxf-858">
        <rect class="tile" x="300" y="148.4375" width="120" height="85.9375"/>
        <rect class="trigger" x="300" y="148.4375" width="120" height="85.9375"/>
        <circle class="num-bg" cx="320" cy="170" r="15"/><text class="num" x="315" y="176">7</text>
        <text class="label" x="334" y="191">dxf_858</text>
        <text class="small" x="334" y="207">QR_第03关_dxf_858_24x17_1875</text>
      </g>

      <g id="tile-8-dxf-86C">
        <rect class="tile" x="300" y="265.625" width="120" height="85.9375"/>
        <rect class="trigger" x="300" y="265.625" width="120" height="85.9375"/>
        <circle class="num-bg" cx="320" cy="287" r="15"/><text class="num" x="315" y="293">8</text>
        <text class="label" x="334" y="308">dxf_86C</text>
        <text class="small" x="334" y="324">QR_第03关_dxf_86C_24x17_1875</text>
      </g>

      <g id="tile-9-dxf-868">
        <rect class="tile" x="300" y="382.8125" width="120" height="85.9375"/>
        <rect class="trigger" x="300" y="382.8125" width="120" height="85.9375"/>
        <circle class="num-bg" cx="320" cy="405" r="15"/><text class="num" x="315" y="411">9</text>
        <text class="label" x="334" y="426">dxf_868</text>
        <text class="small" x="334" y="442">QR_第03关_dxf_868_24x17_1875</text>
      </g>

      <g id="tile-10-dxf-848">
        <rect class="tile" x="460" y="31.25" width="120" height="85.9375"/>
        <rect class="trigger" x="460" y="31.25" width="120" height="85.9375"/>
        <circle class="num-bg" cx="480" cy="53" r="15"/><text class="num" x="471" y="59">10</text>
        <text class="label" x="498" y="74">dxf_848</text>
        <text class="small" x="498" y="90">QR_第03关_dxf_848_24x17_1875</text>
      </g>

      <g id="tile-11-dxf-84C">
        <rect class="tile" x="470" y="148.4375" width="100" height="85.9375"/>
        <rect class="trigger" x="470" y="148.4375" width="100" height="85.9375"/>
        <circle class="num-bg" cx="490" cy="170" r="15"/><text class="num" x="481" y="176">11</text>
        <text class="label" x="508" y="191">dxf_84C</text>
        <text class="small" x="508" y="207">QR_第03关_dxf_84C_24x17_1875</text>
      </g>

      <g id="tile-12-dxf-850">
        <rect class="tile" x="460" y="265.625" width="120" height="85.9375"/>
        <rect class="trigger" x="460" y="265.625" width="120" height="85.9375"/>
        <circle class="num-bg" cx="480" cy="287" r="15"/><text class="num" x="471" y="293">12</text>
        <text class="label" x="498" y="308">dxf_850</text>
        <text class="small" x="498" y="324">QR_第03关_dxf_850_24x17_1875</text>
      </g>

      <g id="tile-13-dxf-854">
        <rect class="tile" x="460" y="382.8125" width="120" height="85.9375"/>
        <rect class="trigger" x="460" y="382.8125" width="120" height="85.9375"/>
        <circle class="num-bg" cx="480" cy="405" r="15"/><text class="num" x="471" y="411">13</text>
        <text class="label" x="498" y="426">dxf_854</text>
        <text class="small" x="498" y="442">QR_第03关_dxf_854_24x17_1875</text>
      </g>
    </g>
  </g>

  <g id="legend" transform="translate(730 120)">
    <rect class="legend-box" x="0" y="0" width="210" height="112" rx="6"/>
    <rect class="tile" x="16" y="22" width="28" height="18"/>
    <text class="small" x="54" y="36">12 块蓝色渐隐地砖</text>
    <rect class="trigger" x="16" y="58" width="28" height="18"/>
    <text class="small" x="54" y="72">3101010 渐隐触发区外圈</text>
    <text class="small" x="16" y="100">触发区为地砖子组件，局部 pos=(0,1.25,0)</text>
  </g>

  <text class="subtitle" x="60" y="655">数据来源：data/zlj/levels/level_03.json、docs/level_03_component_index.md、当前场景快照。</text>
</svg>
