<?xml version='1.0' encoding='utf-8'?>
<svg xmlns="http://www.w3.org/2000/svg" width="171.5mm" height="114.1mm" viewBox="0 0 1000000 665306"><defs><style>.C1 {stroke: #e7f0ff; stroke-width: 1458; stroke-opacity: 1.000; fill: none; fill-opacity: 1.000;}</style><style>.C2 {stroke: #ffffff; stroke-width: 1458; stroke-opacity: 1.000; fill: none; fill-opacity: 1.000;}</style><style>.C3 {stroke: none; stroke-width: none; stroke-opacity: 1.000; fill: #ffffff; fill-opacity: 1.000;}</style></defs><rect fill="#212830" x="0" y="0" width="1000000" height="665306" fill-opacity="1.0" /><g stroke-linecap="round" stroke-linejoin="round" fill-rule="evenodd"><path d="M 65 665306 l 932748 0" class="C1" /><path d="M 932812 665306 l 0 -582967" class="C1" /><path d="M 932812 82339 l -932748 0" class="C1" /><path d="M 65 82339 l 0 582967" class="C1" /><path d="M 65 82339 l 0 582967" class="C1" /><path d="M 65 665306 l 932748 0" class="C1" /><path d="M 65 665306 l 93275 0" class="C1" /><path d="M 93339 665306 l 46637 0" class="C1" /><path d="M 932812 665306 l -466374 0" class="C1" /><path d="M 466438 665306 l 93275 0" class="C1" /><path d="M 936456 665306 l 63480 0" class="C2" /><path d="M 936456 82339 l 63480 0" class="C2" /><path d="M 992648 650732 l -0 -553819" class="C2" /><path d="M 990219 650732 l 4858 0 -2429 14574 Z" class="C3" /><path d="M 990219 96913 l 4858 0 -2429 -14574 Z" class="C3" /><path d="M 985525 390422 l 0 -3221 l -11119 0 l 703 3504 l -1796 0 l -703 -3485 l 0 -1972 l 12915 0 l 0 -3221 l 1659 0 l 0 8395 l -1659 0 Z M 973908 373827 q 0 1523 1498 2289 q 1498 766 4505 766 q 2997 0 4495 -766 q 1498 -766 1498 -2289 q 0 -1533 -1498 -2299 q -1498 -766 -4495 -766 q -3007 0 -4505 766 q -1498 766 -1498 2299 m -1562 0 q 0 -2450 1938 -3744 q 1938 -1293 5628 -1293 q 3680 0 5618 1293 q 1938 1293 1938 3744 q 0 2450 -1938 3744 q -1938 1293 -5618 1293 q -3690 0 -5628 -1293 q -1938 -1293 -1938 -3744 Z M 973908 361108 q 0 1523 1498 2289 q 1498 766 4505 766 q 2997 0 4495 -766 q 1498 -766 1498 -2289 q 0 -1533 -1498 -2299 q -1498 -766 -4495 -766 q -3007 0 -4505 766 q -1498 766 -1498 2299 m -1562 0 q 0 -2450 1938 -3744 q 1938 -1293 5628 -1293 q 3680 0 5618 1293 q 1938 1293 1938 3744 q 0 2450 -1938 3744 q -1938 1293 -5618 1293 q -3690 0 -5628 -1293 q -1938 -1293 -1938 -3744 Z" class="C3" /><path d="M 932812 78695 l 0 -65680" class="C2" /><path d="M 65 78695 l 0 -65680" class="C2" /><path d="M 918238 20302 l -903599 0" class="C2" /><path d="M 918238 17873 l 0 4858 14574 -2429 Z" class="C3" /><path d="M 14639 17873 l 0 4858 -14574 -2429 Z" class="C3" /><path d="M 449839 13178 l 3221 0 l 0 -11119 l -3504 703 l 0 -1796 l 3485 -703 l 1972 0 l 0 12915 l 3221 0 l 0 1659 l -8395 0 l 0 -1659 Z M 466678 6765 q -1328 0 -2104 908 q -776 908 -776 2489 q 0 1572 776 2484 q 776 913 2104 913 q 1328 0 2104 -913 q 776 -913 776 -2484 q 0 -1581 -776 -2489 q -776 -908 -2104 -908 m 3914 -6179 l 0 1796 q -742 -351 -1498 -537 q -757 -185 -1498 -185 q -1952 0 -2982 1318 q -1030 1318 -1176 3983 q 576 -849 1445 -1303 q 869 -454 1913 -454 q 2196 0 3470 1332 q 1274 1332 1274 3626 q 0 2245 -1328 3602 q -1328 1357 -3534 1357 q -2528 0 -3866 -1938 q -1337 -1938 -1337 -5618 q 0 -3456 1640 -5510 q 1640 -2055 4403 -2055 q 742 0 1498 146 q 757 146 1577 439 Z M 479153 1562 q -1523 0 -2289 1498 q -766 1498 -766 4505 q 0 2997 766 4495 q 766 1498 2289 1498 q 1533 0 2299 -1498 q 766 -1498 766 -4495 q 0 -3007 -766 -4505 q -766 -1498 -2299 -1498 m 0 -1562 q 2450 0 3744 1938 q 1293 1938 1293 5628 q 0 3680 -1293 5618 q -1293 1938 -3744 1938 q -2450 0 -3744 -1938 q -1293 -1938 -1293 -5618 q 0 -3690 1293 -5628 q 1293 -1938 3744 -1938 Z" class="C3" /><path d="M 932812 665306 l 0 -145742" class="C1" /><path d="M 932812 82339 l 0 145742" class="C1" /><path d="M 932812 82339 l 0 145742" class="C1" /><path d="M 65 665306 l -0 -218613" class="C1" /><path d="M 65 82339 l 0 218613" class="C1" /><path d="M 65 665306 l 0 -182177" class="C1" /><path d="M 932812 519564 l 0 -285007" class="C1" /><path d="M 932812 82339 l 0 145742" class="C1" /><path d="M 932812 228081 l -0 291484" class="C1" /><path d="M 93339 82339 l 69956 0" class="C1" /><path d="M 652988 82339 l -46637 0" class="C1" /><path d="M 139977 628871 l 0 -54653" class="C1" /><path d="M 839538 424832 l 0 -102019" class="C1" /><path d="M 932812 592435 l 0 -437226" class="C1" /><path d="M 722944 107844 l -69956 0" class="C1" /><path d="M 652988 107844 l 0 65584" class="C1" /><path d="M 652988 173427 l 69956 0" class="C1" /><path d="M 722944 173427 l 0 -65584" class="C1" /><path d="M 409308 107844 l 0 65584" class="C1" /><path d="M 409308 173427 l 69956 0" class="C1" /><path d="M 479264 173427 l 0 -65584" class="C1" /><path d="M 65 264516 l 0 218613" class="C1" /><path d="M 65357 322813 l 0 102019" class="C1" /></g></svg>